<svg id="logo" xmlns="http://www.w3.org/2000/svg" width="85.036" height="80" viewBox="0 0 85.036 80">
  <path id="パス_157" data-name="パス 157" d="M23.479,119.135l-1.424,1.424a2.4,2.4,0,0,0-1.575-.859.989.989,0,0,0-.606.164.494.494,0,0,0-.22.409.5.5,0,0,0,.139.341,2.569,2.569,0,0,0,.687.425l.843.422a4.965,4.965,0,0,1,1.828,1.339,2.791,2.791,0,0,1-.4,3.639,3.434,3.434,0,0,1-2.405.817,3.822,3.822,0,0,1-3.2-1.566l1.415-1.541a3.281,3.281,0,0,0,.948.763,2.094,2.094,0,0,0,.964.29,1.151,1.151,0,0,0,.732-.219.634.634,0,0,0,.278-.505q0-.531-1-1.036l-.775-.388q-2.223-1.12-2.223-2.8a2.434,2.434,0,0,1,.838-1.857,3.043,3.043,0,0,1,2.144-.771,3.721,3.721,0,0,1,3.015,1.516" transform="translate(-7.891 -54.137)" fill="#fff"/>
  <path id="パス_158" data-name="パス 158" d="M32.965,111.064A1.406,1.406,0,0,1,34,111.5a1.455,1.455,0,0,1,.433,1.061,1.438,1.438,0,0,1-.429,1.049,1.39,1.39,0,0,1-1.025.434,1.409,1.409,0,0,1-1.045-.442,1.478,1.478,0,0,1-.433-1.074,1.465,1.465,0,0,1,1.462-1.466m-1.15,4.683,2.3-.909V124h-2.3Z" transform="translate(-14.5 -51.12)" fill="#fff"/>
  <path id="パス_159" data-name="パス 159" d="M40.181,119.005l2.3-1.151v1.053a3.925,3.925,0,0,1,1.311-.969,3.823,3.823,0,0,1,1.572-.321,2.921,2.921,0,0,1,1.551.422,3.041,3.041,0,0,1,1.113,1.23,3.708,3.708,0,0,1,1.344-1.23,3.668,3.668,0,0,1,1.741-.422,3.223,3.223,0,0,1,1.72.455,2.628,2.628,0,0,1,1.067,1.188,6.356,6.356,0,0,1,.324,2.383v5.374H51.906v-4.649a3.982,3.982,0,0,0-.387-2.11,1.327,1.327,0,0,0-1.163-.552,1.764,1.764,0,0,0-1.057.337,1.992,1.992,0,0,0-.7.931,5.783,5.783,0,0,0-.227,1.907v4.136H46.06V122.58a6.236,6.236,0,0,0-.181-1.782,1.612,1.612,0,0,0-.545-.821,1.436,1.436,0,0,0-.878-.269,1.732,1.732,0,0,0-1.043.341,2.032,2.032,0,0,0-.7.956,5.9,5.9,0,0,0-.233,1.937v4.077h-2.3Z" transform="translate(-18.494 -54.137)" fill="#fff"/>
  <path id="パス_160" data-name="パス 160" d="M78.067,111.5v12.7H76.9v-1.575a5.049,5.049,0,0,1-1.663,1.356,4.65,4.65,0,0,1-5.341-.956,4.731,4.731,0,0,1-1.377-3.433,4.644,4.644,0,0,1,1.39-3.386,4.532,4.532,0,0,1,3.344-1.407,4.318,4.318,0,0,1,2.043.48,4.64,4.64,0,0,1,1.6,1.44v-4.509Zm-4.712,4.439a3.556,3.556,0,0,0-3.143,1.843,3.716,3.716,0,0,0,0,3.7,3.611,3.611,0,0,0,1.334,1.375,3.484,3.484,0,0,0,1.8.492,3.683,3.683,0,0,0,1.835-.488,3.413,3.413,0,0,0,1.333-1.321,3.77,3.77,0,0,0,.467-1.876,3.649,3.649,0,0,0-1.047-2.659,3.47,3.47,0,0,0-2.579-1.069" transform="translate(-31.54 -51.321)" fill="#fff"/>
  <path id="パス_161" data-name="パス 161" d="M90.325,117.854h1.2v1.339a4.222,4.222,0,0,1,1.137-1.184,2.243,2.243,0,0,1,1.247-.392,2.156,2.156,0,0,1,1.044.312l-.615.994a1.642,1.642,0,0,0-.623-.159,1.706,1.706,0,0,0-1.137.484,3.061,3.061,0,0,0-.834,1.5,14.45,14.45,0,0,0-.219,3.168v3.1h-1.2Z" transform="translate(-41.575 -54.137)" fill="#fff"/>
  <path id="パス_162" data-name="パス 162" d="M100.7,111.064a.973.973,0,0,1,0,1.946.976.976,0,0,1-.964-.968.945.945,0,0,1,.285-.691.927.927,0,0,1,.68-.286m-.586,4.553,1.179-.779V124h-1.179Z" transform="translate(-45.906 -51.12)" fill="#fff"/>
  <path id="パス_163" data-name="パス 163" d="M105.317,118.056h1.255l3.076,6.68,3.039-6.68h1.264l-4.195,9.164h-.219Z" transform="translate(-48.475 -54.339)" fill="#fff"/>
  <path id="パス_164" data-name="パス 164" d="M130.566,123.978l.994.522a5.414,5.414,0,0,1-1.13,1.55,4.474,4.474,0,0,1-1.442.9,5.037,5.037,0,0,1-1.813.307,4.38,4.38,0,0,1-3.507-1.47,4.958,4.958,0,0,1-1.264-3.323,4.9,4.9,0,0,1,1.07-3.108,4.377,4.377,0,0,1,3.633-1.736,4.521,4.521,0,0,1,3.744,1.778,4.958,4.958,0,0,1,1.011,3.134h-8.246a3.731,3.731,0,0,0,1.02,2.617,3.254,3.254,0,0,0,2.437,1.021,3.911,3.911,0,0,0,1.362-.243,3.567,3.567,0,0,0,1.126-.646,5.491,5.491,0,0,0,1-1.3m0-2.468a3.912,3.912,0,0,0-.688-1.508,3.253,3.253,0,0,0-1.193-.909,3.649,3.649,0,0,0-1.56-.345,3.358,3.358,0,0,0-2.319.868,3.922,3.922,0,0,0-1.071,1.895Z" transform="translate(-56.34 -54.137)" fill="#fff"/>
  <path id="パス_165" data-name="パス 165" d="M24.824,141.859h1.586v.313H25.158v.732h1.166v.313H25.158V144h1.315v.313H24.824Z" transform="translate(-11.426 -65.295)" fill="#fff"/>
  <path id="パス_166" data-name="パス 166" d="M29.13,144.131l-.583-.767h.4l.4.583.392-.583h.379l-.562.767.666.878h-.4l-.486-.69-.486.69h-.385Z" transform="translate(-13.101 -65.987)" fill="#fff"/>
  <path id="パス_167" data-name="パス 167" d="M33.565,143.768a.669.669,0,0,0-.182-.138.521.521,0,0,0-.228-.046.506.506,0,0,0-.223.046.46.46,0,0,0-.16.128.564.564,0,0,0-.1.188.732.732,0,0,0-.033.22.616.616,0,0,0,.038.217.538.538,0,0,0,.108.179.488.488,0,0,0,.166.12.527.527,0,0,0,.219.043.5.5,0,0,0,.226-.047.573.573,0,0,0,.174-.137l.222.222a.692.692,0,0,1-.283.194.985.985,0,0,1-.342.059.929.929,0,0,1-.349-.063.791.791,0,0,1-.273-.175.782.782,0,0,1-.177-.271.939.939,0,0,1-.063-.348.955.955,0,0,1,.063-.351.781.781,0,0,1,.446-.453.931.931,0,0,1,.352-.064.947.947,0,0,1,.345.064.765.765,0,0,1,.286.2Z" transform="translate(-14.871 -65.954)" fill="#fff"/>
  <rect id="長方形_6" data-name="長方形 6" width="0.312" height="2.624" transform="translate(19.354 76.398)" fill="#fff"/>
  <path id="パス_168" data-name="パス 168" d="M39.072,145.009h-.313v-.254h-.007a.461.461,0,0,1-.2.214.683.683,0,0,1-.337.081.713.713,0,0,1-.229-.036.522.522,0,0,1-.189-.113.549.549,0,0,1-.13-.2.754.754,0,0,1-.049-.283v-1.058h.313v.972a.543.543,0,0,0,.031.2.353.353,0,0,0,.083.132.3.3,0,0,0,.12.073.439.439,0,0,0,.14.023.509.509,0,0,0,.181-.031.374.374,0,0,0,.146-.1.473.473,0,0,0,.1-.172.8.8,0,0,0,.035-.247v-.847h.313Z" transform="translate(-17.313 -65.987)" fill="#fff"/>
  <path id="パス_169" data-name="パス 169" d="M42.2,143.74a.479.479,0,0,0-.137-.116.4.4,0,0,0-.2-.047.383.383,0,0,0-.192.047.149.149,0,0,0-.082.137.157.157,0,0,0,.047.118.39.39,0,0,0,.111.073.659.659,0,0,0,.137.042l.125.024a1.408,1.408,0,0,1,.189.059.538.538,0,0,1,.153.09.392.392,0,0,1,.1.135.468.468,0,0,1,.037.194.45.45,0,0,1-.059.238.5.5,0,0,1-.152.161.656.656,0,0,1-.214.09,1.077,1.077,0,0,1-.241.027.942.942,0,0,1-.359-.063.639.639,0,0,1-.276-.229l.236-.194a.949.949,0,0,0,.17.135.421.421,0,0,0,.229.059.652.652,0,0,0,.12-.012.369.369,0,0,0,.107-.038.236.236,0,0,0,.077-.066.149.149,0,0,0,.03-.091.157.157,0,0,0-.044-.114.306.306,0,0,0-.1-.071.7.7,0,0,0-.128-.042l-.119-.026c-.067-.016-.131-.035-.191-.056a.587.587,0,0,1-.16-.083.388.388,0,0,1-.111-.132.429.429,0,0,1-.042-.2.442.442,0,0,1,.054-.223.47.47,0,0,1,.142-.158.657.657,0,0,1,.2-.094.861.861,0,0,1,.228-.031.835.835,0,0,1,.319.062.508.508,0,0,1,.243.208Z" transform="translate(-18.959 -65.951)" fill="#fff"/>
  <path id="パス_170" data-name="パス 170" d="M44.469,142.075a.23.23,0,1,1,.067.162.222.222,0,0,1-.067-.162m.073.59h.312v1.645h-.312Z" transform="translate(-20.468 -65.289)" fill="#fff"/>
  <path id="パス_171" data-name="パス 171" d="M45.992,143.364h.361l.493,1.26.472-1.26h.333l-.646,1.645h-.343Z" transform="translate(-21.169 -65.987)" fill="#fff"/>
  <path id="パス_172" data-name="パス 172" d="M49.985,144.265a.41.41,0,0,0,.047.2.476.476,0,0,0,.123.151.559.559,0,0,0,.177.1.647.647,0,0,0,.208.035.463.463,0,0,0,.253-.067.838.838,0,0,0,.2-.179l.236.18a.869.869,0,0,1-.729.337.9.9,0,0,1-.352-.066.766.766,0,0,1-.267-.182.812.812,0,0,1-.168-.274.97.97,0,0,1-.059-.342.9.9,0,0,1,.064-.342.859.859,0,0,1,.177-.274.823.823,0,0,1,.269-.182.869.869,0,0,1,.34-.066.809.809,0,0,1,.37.077.736.736,0,0,1,.248.2.8.8,0,0,1,.141.278,1.167,1.167,0,0,1,.043.314v.111Zm.986-.25a.661.661,0,0,0-.033-.191.424.424,0,0,0-.089-.151.408.408,0,0,0-.148-.1.535.535,0,0,0-.206-.037.507.507,0,0,0-.21.043.518.518,0,0,0-.161.113.53.53,0,0,0-.1.155.422.422,0,0,0-.036.168Z" transform="translate(-22.854 -65.951)" fill="#fff"/>
  <path id="パス_173" data-name="パス 173" d="M55.812,141.859h.5l.782,1.86H57.1l.774-1.86h.5v2.457H58.04V142.3h-.006l-.83,2.02h-.222l-.83-2.02h-.007v2.02h-.333Z" transform="translate(-25.689 -65.295)" fill="#fff"/>
  <path id="パス_174" data-name="パス 174" d="M61.945,144.265a.41.41,0,0,0,.047.2.477.477,0,0,0,.123.151.558.558,0,0,0,.177.1.647.647,0,0,0,.208.035.463.463,0,0,0,.253-.067.838.838,0,0,0,.2-.179l.236.18a.869.869,0,0,1-.729.337.9.9,0,0,1-.352-.066.766.766,0,0,1-.267-.182.812.812,0,0,1-.168-.274.97.97,0,0,1-.059-.342.9.9,0,0,1,.064-.342.86.86,0,0,1,.177-.274.823.823,0,0,1,.269-.182.869.869,0,0,1,.34-.066.809.809,0,0,1,.37.077.736.736,0,0,1,.248.2.8.8,0,0,1,.141.278,1.168,1.168,0,0,1,.043.314v.111Zm.986-.25a.66.66,0,0,0-.033-.191.424.424,0,0,0-.089-.151.408.408,0,0,0-.148-.1.535.535,0,0,0-.206-.037.506.506,0,0,0-.21.043.518.518,0,0,0-.161.113.531.531,0,0,0-.1.155.422.422,0,0,0-.036.168Z" transform="translate(-28.359 -65.951)" fill="#fff"/>
  <path id="パス_175" data-name="パス 175" d="M65.624,143.329h.291v.257h.007a.264.264,0,0,1,.053-.087.546.546,0,0,1,.111-.1.7.7,0,0,1,.16-.08.609.609,0,0,1,.2-.032.586.586,0,0,1,.309.076.571.571,0,0,1,.2.229.528.528,0,0,1,.226-.229.631.631,0,0,1,.295-.076.684.684,0,0,1,.313.062.506.506,0,0,1,.191.165.648.648,0,0,1,.1.232,1.387,1.387,0,0,1,.026.269v.958H67.8v-.916a1.22,1.22,0,0,0-.012-.181.4.4,0,0,0-.05-.153.281.281,0,0,0-.107-.106.445.445,0,0,0-.507.1.611.611,0,0,0-.1.358v.9H66.71v-.861a1.749,1.749,0,0,0-.012-.215.509.509,0,0,0-.049-.169.264.264,0,0,0-.1-.111.352.352,0,0,0-.182-.04.411.411,0,0,0-.162.033.382.382,0,0,0-.137.1.492.492,0,0,0-.093.169.748.748,0,0,0-.035.241v.854h-.312Z" transform="translate(-30.205 -65.952)" fill="#fff"/>
  <path id="パス_176" data-name="パス 176" d="M71.359,141.551h.313v1.215h.007a.563.563,0,0,1,.24-.2.76.76,0,0,1,.332-.074.872.872,0,0,1,.345.066.764.764,0,0,1,.264.183.793.793,0,0,1,.168.274.966.966,0,0,1,.06.341.954.954,0,0,1-.06.341.819.819,0,0,1-.168.274.753.753,0,0,1-.264.184.87.87,0,0,1-.345.066.765.765,0,0,1-.324-.073.594.594,0,0,1-.248-.205h-.007v.236h-.313Zm.854,2.374a.563.563,0,0,0,.226-.043.5.5,0,0,0,.17-.118.529.529,0,0,0,.108-.181.722.722,0,0,0,0-.461.529.529,0,0,0-.108-.181.5.5,0,0,0-.17-.118.61.61,0,0,0-.451,0,.506.506,0,0,0-.17.118.522.522,0,0,0-.107.181.712.712,0,0,0,0,.461.521.521,0,0,0,.107.181.506.506,0,0,0,.17.118.562.562,0,0,0,.226.043" transform="translate(-32.845 -65.153)" fill="#fff"/>
  <path id="パス_177" data-name="パス 177" d="M75.7,144.265a.41.41,0,0,0,.047.2.476.476,0,0,0,.123.151.559.559,0,0,0,.177.1.647.647,0,0,0,.208.035.463.463,0,0,0,.253-.067.839.839,0,0,0,.2-.179l.236.18a.869.869,0,0,1-.729.337.9.9,0,0,1-.352-.066.766.766,0,0,1-.267-.182.811.811,0,0,1-.168-.274.969.969,0,0,1-.059-.342.9.9,0,0,1,.064-.342.859.859,0,0,1,.177-.274.822.822,0,0,1,.269-.182.869.869,0,0,1,.34-.066.809.809,0,0,1,.37.077.736.736,0,0,1,.248.2.8.8,0,0,1,.141.278,1.168,1.168,0,0,1,.043.314v.111Zm.986-.25a.662.662,0,0,0-.033-.191.425.425,0,0,0-.089-.151.409.409,0,0,0-.148-.1.535.535,0,0,0-.206-.037.506.506,0,0,0-.21.043.518.518,0,0,0-.161.113.531.531,0,0,0-.1.155.423.423,0,0,0-.036.168Z" transform="translate(-34.689 -65.951)" fill="#fff"/>
  <path id="パス_178" data-name="パス 178" d="M79.378,143.329h.312v.254H79.7a.445.445,0,0,1,.084-.12.571.571,0,0,1,.116-.092.6.6,0,0,1,.141-.061.534.534,0,0,1,.153-.023.443.443,0,0,1,.138.02l-.013.337c-.025-.007-.051-.012-.076-.017a.418.418,0,0,0-.077-.007.456.456,0,0,0-.35.128.565.565,0,0,0-.122.4v.826h-.312Z" transform="translate(-36.536 -65.952)" fill="#fff"/>
  <path id="パス_179" data-name="パス 179" d="M82.771,143.74a.479.479,0,0,0-.137-.116.4.4,0,0,0-.2-.047.383.383,0,0,0-.192.047.15.15,0,0,0-.082.137.157.157,0,0,0,.047.118.39.39,0,0,0,.111.073.66.66,0,0,0,.137.042l.125.024a1.408,1.408,0,0,1,.189.059.537.537,0,0,1,.153.09.392.392,0,0,1,.1.135.52.52,0,0,1-.022.432.508.508,0,0,1-.153.161.661.661,0,0,1-.214.09,1.073,1.073,0,0,1-.241.027.942.942,0,0,1-.359-.063.641.641,0,0,1-.276-.229l.236-.194a.945.945,0,0,0,.17.135.419.419,0,0,0,.229.059.652.652,0,0,0,.12-.012.385.385,0,0,0,.108-.038.239.239,0,0,0,.076-.066.149.149,0,0,0,.029-.091.156.156,0,0,0-.043-.114.309.309,0,0,0-.1-.071.721.721,0,0,0-.129-.042l-.119-.026c-.067-.016-.131-.035-.191-.056a.588.588,0,0,1-.16-.083.388.388,0,0,1-.111-.132.423.423,0,0,1-.042-.2.442.442,0,0,1,.054-.223.47.47,0,0,1,.142-.158.657.657,0,0,1,.2-.094.863.863,0,0,1,.227-.031.836.836,0,0,1,.32.062.509.509,0,0,1,.243.208Z" transform="translate(-37.631 -65.951)" fill="#fff"/>
  <path id="パス_180" data-name="パス 180" d="M85.128,141.55h.312v1.232h.008a.455.455,0,0,1,.2-.213.674.674,0,0,1,.337-.082.718.718,0,0,1,.227.037.512.512,0,0,1,.191.113.536.536,0,0,1,.13.2.737.737,0,0,1,.048.283v1.058h-.311V143.2a.545.545,0,0,0-.032-.2.35.35,0,0,0-.084-.132.3.3,0,0,0-.12-.073.429.429,0,0,0-.139-.023.517.517,0,0,0-.181.031.375.375,0,0,0-.146.1.457.457,0,0,0-.1.172.777.777,0,0,0-.035.246v.847h-.312Z" transform="translate(-39.183 -65.153)" fill="#fff"/>
  <path id="パス_181" data-name="パス 181" d="M88.87,142.075a.23.23,0,1,1,.067.162.22.22,0,0,1-.067-.162m.073.59h.312v1.645h-.312Z" transform="translate(-40.905 -65.289)" fill="#fff"/>
  <path id="パス_182" data-name="パス 182" d="M90.759,143.329h.312v.236h.008a.593.593,0,0,1,.248-.205.765.765,0,0,1,.324-.073.875.875,0,0,1,.345.066.769.769,0,0,1,.264.184.833.833,0,0,1,.168.276.957.957,0,0,1,.059.338.967.967,0,0,1-.059.342.81.81,0,0,1-.168.274.778.778,0,0,1-.264.182.874.874,0,0,1-.345.066.758.758,0,0,1-.333-.075.556.556,0,0,1-.239-.2h-.008v1.215h-.312Zm.854.25a.559.559,0,0,0-.226.043.5.5,0,0,0-.17.118.524.524,0,0,0-.108.181.713.713,0,0,0,0,.461.523.523,0,0,0,.108.181.5.5,0,0,0,.17.118.611.611,0,0,0,.451,0,.5.5,0,0,0,.169-.118.523.523,0,0,0,.108-.181.712.712,0,0,0,0-.461.524.524,0,0,0-.108-.181.5.5,0,0,0-.169-.118.561.561,0,0,0-.226-.043" transform="translate(-41.774 -65.952)" fill="#fff"/>
  <path id="パス_183" data-name="パス 183" d="M97.036,141.858h.857a1.565,1.565,0,0,1,.456.059,1.206,1.206,0,0,1,.34.158,1,1,0,0,1,.24.227,1.214,1.214,0,0,1,.151.263,1.367,1.367,0,0,1,.08.271,1.419,1.419,0,0,1,.024.25,1.223,1.223,0,0,1-.087.456,1.146,1.146,0,0,1-.256.392,1.26,1.26,0,0,1-.422.276,1.507,1.507,0,0,1-.581.1h-.8ZM97.369,144h.42a1.4,1.4,0,0,0,.4-.057.983.983,0,0,0,.331-.172.819.819,0,0,0,.226-.286.918.918,0,0,0,.083-.4,1.192,1.192,0,0,0-.038-.276.836.836,0,0,0-.145-.3.856.856,0,0,0-.293-.241,1.039,1.039,0,0,0-.486-.1h-.5Z" transform="translate(-44.664 -65.294)" fill="#fff"/>
  <path id="パス_184" data-name="パス 184" d="M102.012,143.329h.312v.254h.008a.444.444,0,0,1,.083-.12.559.559,0,0,1,.116-.092.59.59,0,0,1,.141-.061.531.531,0,0,1,.153-.023.449.449,0,0,1,.139.02l-.014.337c-.026-.007-.051-.012-.076-.017a.413.413,0,0,0-.077-.007.457.457,0,0,0-.35.128.562.562,0,0,0-.122.4v.826h-.312Z" transform="translate(-46.954 -65.952)" fill="#fff"/>
  <path id="パス_185" data-name="パス 185" d="M104.559,142.075a.22.22,0,0,1,.067-.161.227.227,0,1,1-.067.161m.073.59h.312v1.645h-.312Z" transform="translate(-48.126 -65.289)" fill="#fff"/>
  <path id="パス_186" data-name="パス 186" d="M106.082,143.364h.361l.493,1.26.472-1.26h.333l-.646,1.645h-.344Z" transform="translate(-48.827 -65.987)" fill="#fff"/>
  <path id="パス_187" data-name="パス 187" d="M109.832,142.075a.23.23,0,1,1,.067.162.22.22,0,0,1-.067-.162m.072.59h.312v1.645H109.9Z" transform="translate(-50.553 -65.289)" fill="#fff"/>
  <path id="パス_188" data-name="パス 188" d="M111.721,143.329h.312v.254h.008a.458.458,0,0,1,.2-.214.679.679,0,0,1,.337-.081.715.715,0,0,1,.227.036.508.508,0,0,1,.191.113.541.541,0,0,1,.13.2.741.741,0,0,1,.049.283v1.058h-.312V144a.528.528,0,0,0-.032-.2.346.346,0,0,0-.083-.132.3.3,0,0,0-.12-.073.433.433,0,0,0-.14-.023.506.506,0,0,0-.181.031.375.375,0,0,0-.146.1.469.469,0,0,0-.1.172.781.781,0,0,0-.035.247v.847h-.312Z" transform="translate(-51.423 -65.952)" fill="#fff"/>
  <path id="パス_189" data-name="パス 189" d="M117.133,144.96a.882.882,0,0,1-.064.341.776.776,0,0,1-.182.268.826.826,0,0,1-.284.175,1.043,1.043,0,0,1-.368.062,1.342,1.342,0,0,1-.432-.066,1.045,1.045,0,0,1-.373-.229l.212-.264a.874.874,0,0,0,.264.2.748.748,0,0,0,.323.067.722.722,0,0,0,.288-.05.494.494,0,0,0,.182-.13.463.463,0,0,0,.1-.182.792.792,0,0,0,.028-.207V144.7h-.011a.546.546,0,0,1-.244.221.766.766,0,0,1-.324.071.864.864,0,0,1-.335-.064.8.8,0,0,1-.266-.177.825.825,0,0,1-.173-.267.888.888,0,0,1-.063-.335.97.97,0,0,1,.059-.338.826.826,0,0,1,.169-.276.761.761,0,0,1,.263-.184.875.875,0,0,1,.345-.066.765.765,0,0,1,.324.073.594.594,0,0,1,.248.205h.007v-.236h.312Zm-.853-1.382a.56.56,0,0,0-.226.043.5.5,0,0,0-.17.118.523.523,0,0,0-.108.181.687.687,0,0,0-.038.23.554.554,0,0,0,.146.4.594.594,0,0,0,.791,0,.551.551,0,0,0,.146-.4.674.674,0,0,0-.038-.23.523.523,0,0,0-.108-.181.5.5,0,0,0-.169-.118.561.561,0,0,0-.226-.043" transform="translate(-53.118 -65.952)" fill="#fff"/>
  <path id="パス_190" data-name="パス 190" d="M121.932,141.859h.333V144h1.128v.313h-1.461Z" transform="translate(-56.123 -65.295)" fill="#fff"/>
  <path id="パス_191" data-name="パス 191" d="M125.317,143.53a.874.874,0,0,1,.306-.182,1.041,1.041,0,0,1,.347-.06.943.943,0,0,1,.31.045.608.608,0,0,1,.214.121.486.486,0,0,1,.123.175.552.552,0,0,1,.041.206v.84c0,.058,0,.111,0,.16s.006.095.011.139h-.278c-.006-.083-.01-.167-.01-.25h-.007a.594.594,0,0,1-.246.226.782.782,0,0,1-.33.066.771.771,0,0,1-.219-.031.535.535,0,0,1-.181-.093.451.451,0,0,1-.124-.155.531.531,0,0,1,.026-.48.542.542,0,0,1,.194-.175.944.944,0,0,1,.288-.1,2.028,2.028,0,0,1,.353-.03h.229v-.07a.345.345,0,0,0-.1-.237.353.353,0,0,0-.121-.08.47.47,0,0,0-.174-.029.624.624,0,0,0-.158.017.67.67,0,0,0-.123.043.562.562,0,0,0-.1.06l-.087.066Zm.881.652a2.191,2.191,0,0,0-.227.012.887.887,0,0,0-.212.047.415.415,0,0,0-.157.1.22.22,0,0,0-.06.16.226.226,0,0,0,.1.2.468.468,0,0,0,.258.063.5.5,0,0,0,.219-.043.418.418,0,0,0,.146-.113.438.438,0,0,0,.08-.154.612.612,0,0,0,.024-.169v-.1Z" transform="translate(-57.641 -65.952)" fill="#fff"/>
  <path id="パス_192" data-name="パス 192" d="M128.973,141.551h.312v1.215h.008a.56.56,0,0,1,.239-.2.766.766,0,0,1,.333-.074.876.876,0,0,1,.345.066.779.779,0,0,1,.264.183.81.81,0,0,1,.168.274.965.965,0,0,1,.059.341.954.954,0,0,1-.059.341.837.837,0,0,1-.168.274.768.768,0,0,1-.264.184.874.874,0,0,1-.345.066.766.766,0,0,1-.324-.073.593.593,0,0,1-.248-.205h-.008v.236h-.312Zm.854,2.374a.563.563,0,0,0,.226-.043.5.5,0,0,0,.169-.118.523.523,0,0,0,.108-.181.713.713,0,0,0,0-.461.523.523,0,0,0-.108-.181.5.5,0,0,0-.169-.118.611.611,0,0,0-.451,0,.5.5,0,0,0-.17.118.521.521,0,0,0-.108.181.713.713,0,0,0,0,.461.521.521,0,0,0,.108.181.5.5,0,0,0,.17.118.561.561,0,0,0,.226.043" transform="translate(-59.363 -65.153)" fill="#fff"/>
  <path id="パス_193" data-name="パス 193" d="M19.269,38.537h6.94L39.031,25.714H19.269a6.446,6.446,0,1,1,0-12.892H51.923L64.746,0H19.269a19.269,19.269,0,0,0,0,38.537" fill="#727272"/>
  <path id="パス_194" data-name="パス 194" d="M83.071,23.758h-6.94L63.309,36.581H83.071a6.446,6.446,0,1,1,0,12.892H50.417L37.594,62.3H83.071a19.269,19.269,0,1,0,0-38.537" transform="translate(-17.304 -10.935)" fill="#fff"/>
</svg>
