<svg id="logo" xmlns="http://www.w3.org/2000/svg" width="148.813" height="140" viewBox="0 0 148.813 140">
  <path id="パス_157" data-name="パス 157" d="M28.23,120.272l-2.492,2.492a4.209,4.209,0,0,0-2.756-1.5,1.73,1.73,0,0,0-1.061.287.865.865,0,0,0-.384.715.881.881,0,0,0,.244.6,4.5,4.5,0,0,0,1.2.744l1.474.738a8.688,8.688,0,0,1,3.2,2.343,4.883,4.883,0,0,1-.7,6.368,6.01,6.01,0,0,1-4.209,1.429,6.688,6.688,0,0,1-5.6-2.741l2.477-2.7a5.742,5.742,0,0,0,1.659,1.335,3.664,3.664,0,0,0,1.688.508,2.015,2.015,0,0,0,1.282-.383,1.109,1.109,0,0,0,.486-.884q0-.929-1.754-1.814l-1.356-.678q-3.89-1.959-3.89-4.909a4.259,4.259,0,0,1,1.466-3.25,5.325,5.325,0,0,1,3.752-1.349,6.512,6.512,0,0,1,5.277,2.653" transform="translate(-0.951 -6.526)" fill="#fff"/>
  <path id="パス_158" data-name="パス 158" d="M34.061,111.064a2.461,2.461,0,0,1,1.815.767,2.546,2.546,0,0,1,.758,1.857,2.517,2.517,0,0,1-.75,1.835,2.433,2.433,0,0,1-1.794.759,2.466,2.466,0,0,1-1.83-.774,2.586,2.586,0,0,1-.757-1.88,2.564,2.564,0,0,1,2.558-2.565m-2.012,8.195,4.024-1.591v16.038H32.049Z" transform="translate(-1.748 -6.163)" fill="#fff"/>
  <path id="パス_159" data-name="パス 159" d="M40.181,120.045l4.024-2.014v1.843a6.869,6.869,0,0,1,2.294-1.7,6.691,6.691,0,0,1,2.751-.561,5.111,5.111,0,0,1,2.714.738,5.322,5.322,0,0,1,1.948,2.153,6.489,6.489,0,0,1,2.353-2.153,6.419,6.419,0,0,1,3.046-.738,5.64,5.64,0,0,1,3.009.8,4.6,4.6,0,0,1,1.866,2.079,11.123,11.123,0,0,1,.568,4.171v9.4H60.7v-8.136a6.968,6.968,0,0,0-.678-3.693,2.323,2.323,0,0,0-2.034-.965,3.087,3.087,0,0,0-1.849.589,3.487,3.487,0,0,0-1.217,1.629,10.12,10.12,0,0,0-.4,3.338v7.238H50.47V126.3a10.914,10.914,0,0,0-.317-3.118,2.821,2.821,0,0,0-.953-1.438,2.513,2.513,0,0,0-1.537-.471,3.031,3.031,0,0,0-1.825.6,3.556,3.556,0,0,0-1.226,1.674,10.323,10.323,0,0,0-.407,3.39v7.134H40.181Z" transform="translate(-2.23 -6.526)" fill="#fff"/>
  <path id="パス_160" data-name="パス 160" d="M85.224,111.5V133.73H83.19v-2.757a8.837,8.837,0,0,1-2.911,2.374,8.137,8.137,0,0,1-9.346-1.673,8.28,8.28,0,0,1-2.409-6.007,8.127,8.127,0,0,1,2.432-5.926,7.931,7.931,0,0,1,5.851-2.461,7.556,7.556,0,0,1,3.575.841,8.12,8.12,0,0,1,2.808,2.52v-7.891Zm-8.247,7.769a6.224,6.224,0,0,0-5.5,3.225,6.5,6.5,0,0,0,.008,6.478,6.319,6.319,0,0,0,2.334,2.407,6.1,6.1,0,0,0,3.143.861,6.445,6.445,0,0,0,3.21-.854,5.973,5.973,0,0,0,2.333-2.311,6.6,6.6,0,0,0,.817-3.283,6.385,6.385,0,0,0-1.832-4.653,6.072,6.072,0,0,0-4.513-1.87" transform="translate(-3.802 -6.187)" fill="#fff"/>
  <path id="パス_161" data-name="パス 161" d="M90.325,118.032h2.108v2.343a7.389,7.389,0,0,1,1.989-2.071,3.926,3.926,0,0,1,2.182-.686,3.773,3.773,0,0,1,1.828.546L97.356,119.9a2.874,2.874,0,0,0-1.091-.279,2.986,2.986,0,0,0-1.989.846,5.357,5.357,0,0,0-1.46,2.631,25.287,25.287,0,0,0-.383,5.543v5.424H90.325Z" transform="translate(-5.012 -6.526)" fill="#fff"/>
  <path id="パス_162" data-name="パス 162" d="M101.424,111.064a1.7,1.7,0,0,1,0,3.405,1.708,1.708,0,0,1-1.688-1.694,1.654,1.654,0,0,1,.5-1.21,1.622,1.622,0,0,1,1.189-.5m-1.025,7.967,2.064-1.363V133.7H100.4Z" transform="translate(-5.534 -6.163)" fill="#fff"/>
  <path id="パス_163" data-name="パス 163" d="M105.317,118.056h2.2l5.384,11.69,5.319-11.69h2.211l-7.341,16.038H112.7Z" transform="translate(-5.844 -6.551)" fill="#fff"/>
  <path id="パス_164" data-name="パス 164" d="M136.687,128.748l1.739.913a9.474,9.474,0,0,1-1.977,2.712,7.83,7.83,0,0,1-2.523,1.571,8.814,8.814,0,0,1-3.173.537,7.666,7.666,0,0,1-6.137-2.572A8.677,8.677,0,0,1,122.4,126.1a8.57,8.57,0,0,1,1.873-5.439,7.66,7.66,0,0,1,6.359-3.038,7.911,7.911,0,0,1,6.551,3.111,8.677,8.677,0,0,1,1.77,5.484h-14.43a6.529,6.529,0,0,0,1.785,4.58,5.694,5.694,0,0,0,4.265,1.787,6.843,6.843,0,0,0,2.383-.426,6.242,6.242,0,0,0,1.97-1.131,9.61,9.61,0,0,0,1.757-2.275m0-4.319a6.845,6.845,0,0,0-1.2-2.639A5.693,5.693,0,0,0,133.4,120.2a6.386,6.386,0,0,0-2.73-.6,5.877,5.877,0,0,0-4.059,1.519,6.863,6.863,0,0,0-1.875,3.316Z" transform="translate(-6.792 -6.526)" fill="#fff"/>
  <path id="パス_165" data-name="パス 165" d="M24.824,141.859H27.6v.547H25.408v1.282h2.04v.547h-2.04v1.378h2.3v.547H24.824Z" transform="translate(-1.377 -7.871)" fill="#fff"/>
  <path id="パス_166" data-name="パス 166" d="M29.63,144.706l-1.021-1.342h.706l.7,1.02.686-1.02h.663l-.984,1.342,1.166,1.537h-.7l-.85-1.208-.85,1.208h-.674Z" transform="translate(-1.579 -7.955)" fill="#fff"/>
  <path id="パス_167" data-name="パス 167" d="M34.508,144.125a1.17,1.17,0,0,0-.318-.241.912.912,0,0,0-.4-.081.886.886,0,0,0-.391.081.805.805,0,0,0-.28.225.987.987,0,0,0-.17.329,1.281,1.281,0,0,0-.058.385,1.078,1.078,0,0,0,.066.38.942.942,0,0,0,.189.313.854.854,0,0,0,.291.21.923.923,0,0,0,.383.076.87.87,0,0,0,.395-.082,1,1,0,0,0,.3-.239l.388.388a1.212,1.212,0,0,1-.495.34,1.723,1.723,0,0,1-.6.1,1.625,1.625,0,0,1-.61-.11,1.383,1.383,0,0,1-.477-.306,1.369,1.369,0,0,1-.31-.474,1.643,1.643,0,0,1-.11-.609,1.671,1.671,0,0,1,.11-.614,1.368,1.368,0,0,1,.78-.793,1.629,1.629,0,0,1,.617-.112,1.658,1.658,0,0,1,.6.112,1.338,1.338,0,0,1,.5.344Z" transform="translate(-1.793 -7.951)" fill="#fff"/>
  <rect id="長方形_6" data-name="長方形 6" width="0.547" height="4.591" transform="translate(33.869 133.696)" fill="#fff"/>
  <path id="パス_168" data-name="パス 168" d="M40.165,146.243h-.547V145.8h-.012a.807.807,0,0,1-.358.374,1.2,1.2,0,0,1-.589.143,1.247,1.247,0,0,1-.4-.063.912.912,0,0,1-.331-.2.96.96,0,0,1-.228-.343,1.319,1.319,0,0,1-.085-.5v-1.852h.547v1.7a.95.95,0,0,0,.055.343.617.617,0,0,0,.145.23.524.524,0,0,0,.21.128.769.769,0,0,0,.246.04.89.89,0,0,0,.316-.055.655.655,0,0,0,.255-.173.827.827,0,0,0,.17-.3,1.4,1.4,0,0,0,.06-.432v-1.482h.547Z" transform="translate(-2.087 -7.955)" fill="#fff"/>
  <path id="パス_169" data-name="パス 169" d="M42.963,144.081a.838.838,0,0,0-.24-.2.7.7,0,0,0-.349-.082.669.669,0,0,0-.336.082.261.261,0,0,0-.144.24.275.275,0,0,0,.082.207.684.684,0,0,0,.195.128,1.155,1.155,0,0,0,.24.073l.218.043a2.467,2.467,0,0,1,.332.1.941.941,0,0,1,.267.158.686.686,0,0,1,.176.237.818.818,0,0,1,.064.34.788.788,0,0,1-.1.416.876.876,0,0,1-.266.282,1.148,1.148,0,0,1-.374.158,1.885,1.885,0,0,1-.422.048,1.648,1.648,0,0,1-.628-.11,1.119,1.119,0,0,1-.483-.4l.413-.34a1.659,1.659,0,0,0,.3.237.736.736,0,0,0,.4.1,1.141,1.141,0,0,0,.21-.021.646.646,0,0,0,.188-.067.413.413,0,0,0,.134-.116.261.261,0,0,0,.052-.16.274.274,0,0,0-.076-.2.535.535,0,0,0-.182-.125,1.224,1.224,0,0,0-.225-.073c-.078-.019-.148-.034-.209-.046-.118-.028-.23-.061-.334-.1a1.027,1.027,0,0,1-.28-.145.679.679,0,0,1-.195-.23.751.751,0,0,1-.073-.347.773.773,0,0,1,.094-.391.823.823,0,0,1,.248-.277,1.149,1.149,0,0,1,.352-.164,1.507,1.507,0,0,1,.4-.055,1.462,1.462,0,0,1,.558.109.89.89,0,0,1,.425.365Z" transform="translate(-2.285 -7.95)" fill="#fff"/>
  <path id="パス_170" data-name="パス 170" d="M44.469,142.246a.4.4,0,1,1,.118.283.389.389,0,0,1-.118-.283m.128,1.033h.547v2.879H44.6Z" transform="translate(-2.467 -7.87)" fill="#fff"/>
  <path id="パス_171" data-name="パス 171" d="M45.992,143.364h.631l.863,2.2.826-2.2H48.9l-1.131,2.879h-.6Z" transform="translate(-2.552 -7.955)" fill="#fff"/>
  <path id="パス_172" data-name="パス 172" d="M50.235,145a.718.718,0,0,0,.082.343.833.833,0,0,0,.215.264.978.978,0,0,0,.31.171,1.133,1.133,0,0,0,.365.06.81.81,0,0,0,.443-.118,1.466,1.466,0,0,0,.347-.313l.413.315a1.521,1.521,0,0,1-1.276.589,1.572,1.572,0,0,1-.616-.116,1.341,1.341,0,0,1-.468-.318,1.42,1.42,0,0,1-.295-.48,1.7,1.7,0,0,1-.1-.6,1.58,1.58,0,0,1,.111-.6,1.5,1.5,0,0,1,.31-.48,1.44,1.44,0,0,1,.471-.319,1.521,1.521,0,0,1,.6-.115,1.416,1.416,0,0,1,.647.134,1.288,1.288,0,0,1,.434.349,1.394,1.394,0,0,1,.247.486,2.043,2.043,0,0,1,.076.55V145Zm1.725-.437a1.157,1.157,0,0,0-.058-.334.742.742,0,0,0-.155-.264.715.715,0,0,0-.259-.176.937.937,0,0,0-.361-.064.887.887,0,0,0-.367.076.907.907,0,0,0-.282.2.928.928,0,0,0-.179.271.739.739,0,0,0-.063.295Z" transform="translate(-2.755 -7.95)" fill="#fff"/>
  <path id="パス_173" data-name="パス 173" d="M55.812,141.859h.868l1.368,3.255h.024l1.354-3.255h.869v4.3h-.584v-3.534H59.7l-1.452,3.534h-.389l-1.452-3.534h-.012v3.534h-.583Z" transform="translate(-3.097 -7.871)" fill="#fff"/>
  <path id="パス_174" data-name="パス 174" d="M62.195,145a.718.718,0,0,0,.082.343.834.834,0,0,0,.215.264.977.977,0,0,0,.31.171,1.133,1.133,0,0,0,.365.06.81.81,0,0,0,.443-.118,1.466,1.466,0,0,0,.347-.313l.413.315a1.521,1.521,0,0,1-1.276.589,1.572,1.572,0,0,1-.616-.116,1.341,1.341,0,0,1-.468-.318,1.421,1.421,0,0,1-.295-.48,1.7,1.7,0,0,1-.1-.6,1.581,1.581,0,0,1,.111-.6,1.5,1.5,0,0,1,.31-.48,1.44,1.44,0,0,1,.471-.319,1.521,1.521,0,0,1,.6-.115,1.416,1.416,0,0,1,.647.134,1.288,1.288,0,0,1,.434.349,1.394,1.394,0,0,1,.247.486,2.043,2.043,0,0,1,.076.55V145Zm1.725-.437a1.156,1.156,0,0,0-.058-.334.742.742,0,0,0-.155-.264.715.715,0,0,0-.259-.176.937.937,0,0,0-.361-.064.886.886,0,0,0-.367.076.907.907,0,0,0-.282.2.929.929,0,0,0-.179.271.739.739,0,0,0-.063.295Z" transform="translate(-3.419 -7.95)" fill="#fff"/>
  <path id="パス_175" data-name="パス 175" d="M65.624,143.36h.51v.449h.012a.463.463,0,0,1,.093-.152.954.954,0,0,1,.195-.173,1.231,1.231,0,0,1,.28-.141,1.066,1.066,0,0,1,.355-.057,1.026,1.026,0,0,1,.541.133,1,1,0,0,1,.358.4.924.924,0,0,1,.395-.4,1.1,1.1,0,0,1,.516-.133,1.2,1.2,0,0,1,.547.109.886.886,0,0,1,.334.289,1.133,1.133,0,0,1,.167.406,2.428,2.428,0,0,1,.045.471v1.677h-.547v-1.6a2.136,2.136,0,0,0-.022-.316.7.7,0,0,0-.088-.267.492.492,0,0,0-.188-.185.778.778,0,0,0-.887.173,1.069,1.069,0,0,0-.17.626v1.573h-.547v-1.507a3.062,3.062,0,0,0-.021-.376.89.89,0,0,0-.085-.3.463.463,0,0,0-.182-.194.616.616,0,0,0-.318-.07.72.72,0,0,0-.283.058.668.668,0,0,0-.24.173.86.86,0,0,0-.163.3,1.308,1.308,0,0,0-.06.421v1.494h-.547Z" transform="translate(-3.641 -7.951)" fill="#fff"/>
  <path id="パス_176" data-name="パス 176" d="M71.359,141.551h.547v2.126h.012a.986.986,0,0,1,.42-.356,1.331,1.331,0,0,1,.582-.13,1.526,1.526,0,0,1,.6.115,1.337,1.337,0,0,1,.462.319,1.388,1.388,0,0,1,.295.48,1.691,1.691,0,0,1,.1.6,1.67,1.67,0,0,1-.1.6,1.434,1.434,0,0,1-.295.48,1.318,1.318,0,0,1-.462.322,1.523,1.523,0,0,1-.6.115,1.339,1.339,0,0,1-.568-.128,1.039,1.039,0,0,1-.435-.359h-.012v.414h-.547Zm1.494,4.154a.985.985,0,0,0,.395-.075.876.876,0,0,0,.3-.207.926.926,0,0,0,.189-.316,1.263,1.263,0,0,0,0-.807.926.926,0,0,0-.189-.316.877.877,0,0,0-.3-.207,1.069,1.069,0,0,0-.79,0,.886.886,0,0,0-.3.207.913.913,0,0,0-.188.316,1.246,1.246,0,0,0,0,.807.913.913,0,0,0,.188.316.885.885,0,0,0,.3.207.984.984,0,0,0,.395.075" transform="translate(-3.959 -7.854)" fill="#fff"/>
  <path id="パス_177" data-name="パス 177" d="M75.949,145a.718.718,0,0,0,.082.343.833.833,0,0,0,.215.264.978.978,0,0,0,.31.171,1.133,1.133,0,0,0,.365.06.811.811,0,0,0,.443-.118,1.467,1.467,0,0,0,.347-.313l.413.315a1.521,1.521,0,0,1-1.276.589,1.572,1.572,0,0,1-.616-.116,1.34,1.34,0,0,1-.467-.318,1.419,1.419,0,0,1-.295-.48,1.7,1.7,0,0,1-.1-.6,1.58,1.58,0,0,1,.111-.6,1.5,1.5,0,0,1,.31-.48,1.439,1.439,0,0,1,.471-.319,1.521,1.521,0,0,1,.6-.115,1.416,1.416,0,0,1,.647.134,1.289,1.289,0,0,1,.434.349,1.393,1.393,0,0,1,.247.486,2.044,2.044,0,0,1,.076.55V145Zm1.725-.437a1.158,1.158,0,0,0-.058-.334.743.743,0,0,0-.155-.264.715.715,0,0,0-.259-.176.937.937,0,0,0-.361-.064.886.886,0,0,0-.367.076.906.906,0,0,0-.282.2.929.929,0,0,0-.179.271.74.74,0,0,0-.063.295Z" transform="translate(-4.182 -7.95)" fill="#fff"/>
  <path id="パス_178" data-name="パス 178" d="M79.378,143.36h.546v.444h.012a.78.78,0,0,1,.146-.211,1,1,0,0,1,.2-.161,1.056,1.056,0,0,1,.247-.106.934.934,0,0,1,.267-.04.775.775,0,0,1,.242.036l-.024.589c-.044-.012-.089-.022-.133-.03a.73.73,0,0,0-.134-.012.8.8,0,0,0-.613.225.988.988,0,0,0-.213.7v1.445h-.546Z" transform="translate(-4.404 -7.951)" fill="#fff"/>
  <path id="パス_179" data-name="パス 179" d="M83.531,144.081a.838.838,0,0,0-.24-.2.7.7,0,0,0-.349-.082.67.67,0,0,0-.336.082.262.262,0,0,0-.144.24.275.275,0,0,0,.082.207.683.683,0,0,0,.195.128,1.156,1.156,0,0,0,.24.073l.218.043a2.467,2.467,0,0,1,.331.1.941.941,0,0,1,.267.158.686.686,0,0,1,.176.237.911.911,0,0,1-.039.757.89.89,0,0,1-.267.282,1.157,1.157,0,0,1-.374.158,1.878,1.878,0,0,1-.422.048,1.648,1.648,0,0,1-.628-.11,1.121,1.121,0,0,1-.484-.4l.414-.34a1.654,1.654,0,0,0,.3.237.734.734,0,0,0,.4.1,1.141,1.141,0,0,0,.21-.021.673.673,0,0,0,.189-.067.419.419,0,0,0,.133-.116.26.26,0,0,0,.051-.16.273.273,0,0,0-.076-.2.541.541,0,0,0-.181-.125,1.258,1.258,0,0,0-.226-.073c-.079-.019-.148-.034-.209-.046-.118-.028-.229-.061-.334-.1a1.027,1.027,0,0,1-.28-.145.678.678,0,0,1-.195-.23.739.739,0,0,1-.073-.347.773.773,0,0,1,.095-.391.823.823,0,0,1,.248-.277,1.149,1.149,0,0,1,.352-.164,1.51,1.51,0,0,1,.4-.055,1.463,1.463,0,0,1,.559.109.89.89,0,0,1,.425.365Z" transform="translate(-4.537 -7.95)" fill="#fff"/>
  <path id="パス_180" data-name="パス 180" d="M85.128,141.55h.546v2.156h.013a.8.8,0,0,1,.358-.373,1.179,1.179,0,0,1,.589-.144,1.257,1.257,0,0,1,.4.064.9.9,0,0,1,.333.2.938.938,0,0,1,.228.343,1.29,1.29,0,0,1,.084.495v1.852h-.545v-1.7a.953.953,0,0,0-.056-.344.612.612,0,0,0-.146-.23.526.526,0,0,0-.21-.127.751.751,0,0,0-.244-.04.9.9,0,0,0-.316.055.657.657,0,0,0-.255.174.8.8,0,0,0-.17.3,1.36,1.36,0,0,0-.061.431v1.482h-.546Z" transform="translate(-4.724 -7.854)" fill="#fff"/>
  <path id="パス_181" data-name="パス 181" d="M88.87,142.246a.4.4,0,1,1,.118.283.385.385,0,0,1-.118-.283M89,143.28h.546v2.879H89Z" transform="translate(-4.931 -7.87)" fill="#fff"/>
  <path id="パス_182" data-name="パス 182" d="M90.759,143.36H91.3v.414h.013a1.037,1.037,0,0,1,.434-.359,1.339,1.339,0,0,1,.568-.127,1.531,1.531,0,0,1,.6.115,1.345,1.345,0,0,1,.462.322,1.459,1.459,0,0,1,.295.483,1.772,1.772,0,0,1,0,1.19,1.418,1.418,0,0,1-.295.48,1.362,1.362,0,0,1-.462.319,1.529,1.529,0,0,1-.6.115,1.327,1.327,0,0,1-.583-.131.972.972,0,0,1-.418-.355H91.3v2.126h-.546Zm1.494.437a.979.979,0,0,0-.395.076.875.875,0,0,0-.3.207.916.916,0,0,0-.189.317,1.247,1.247,0,0,0,0,.807.914.914,0,0,0,.189.316.876.876,0,0,0,.3.207,1.069,1.069,0,0,0,.79,0,.882.882,0,0,0,.3-.207.915.915,0,0,0,.189-.316,1.247,1.247,0,0,0,0-.807.917.917,0,0,0-.189-.317.881.881,0,0,0-.3-.207.982.982,0,0,0-.395-.076" transform="translate(-5.036 -7.951)" fill="#fff"/>
  <path id="パス_183" data-name="パス 183" d="M97.036,141.858h1.5a2.74,2.74,0,0,1,.8.1,2.112,2.112,0,0,1,.6.277,1.742,1.742,0,0,1,.42.4,2.126,2.126,0,0,1,.264.461,2.391,2.391,0,0,1,.14.474,2.484,2.484,0,0,1,.042.437,2.14,2.14,0,0,1-.152.8,2.005,2.005,0,0,1-.449.687,2.206,2.206,0,0,1-.739.483,2.638,2.638,0,0,1-1.017.182h-1.4Zm.583,3.754h.735a2.44,2.44,0,0,0,.7-.1,1.72,1.72,0,0,0,.58-.3,1.434,1.434,0,0,0,.395-.5,1.606,1.606,0,0,0,.145-.7,2.085,2.085,0,0,0-.066-.483,1.463,1.463,0,0,0-.253-.526,1.5,1.5,0,0,0-.513-.422,1.818,1.818,0,0,0-.85-.173h-.875Z" transform="translate(-5.384 -7.871)" fill="#fff"/>
  <path id="パス_184" data-name="パス 184" d="M102.012,143.36h.546v.444h.013a.778.778,0,0,1,.145-.211.98.98,0,0,1,.2-.161,1.033,1.033,0,0,1,.247-.106.929.929,0,0,1,.267-.04.785.785,0,0,1,.243.036l-.025.589c-.045-.012-.089-.022-.133-.03a.723.723,0,0,0-.134-.012.8.8,0,0,0-.613.225.984.984,0,0,0-.213.7v1.445h-.546Z" transform="translate(-5.66 -7.951)" fill="#fff"/>
  <path id="パス_185" data-name="パス 185" d="M104.559,142.246a.4.4,0,1,1,.4.4.4.4,0,0,1-.4-.4m.128,1.033h.546v2.879h-.546Z" transform="translate(-5.802 -7.87)" fill="#fff"/>
  <path id="パス_186" data-name="パス 186" d="M106.082,143.364h.632l.862,2.2.826-2.2h.583l-1.13,2.879h-.6Z" transform="translate(-5.886 -7.955)" fill="#fff"/>
  <path id="パス_187" data-name="パス 187" d="M109.832,142.246a.4.4,0,1,1,.118.283.385.385,0,0,1-.118-.283m.127,1.033h.546v2.879h-.546Z" transform="translate(-6.094 -7.87)" fill="#fff"/>
  <path id="パス_188" data-name="パス 188" d="M111.721,143.36h.546v.444h.013a.8.8,0,0,1,.358-.374,1.188,1.188,0,0,1,.589-.143,1.252,1.252,0,0,1,.4.063.888.888,0,0,1,.333.2.946.946,0,0,1,.228.343,1.3,1.3,0,0,1,.085.5v1.852h-.546v-1.7a.924.924,0,0,0-.056-.343.605.605,0,0,0-.145-.23.517.517,0,0,0-.21-.128.758.758,0,0,0-.245-.04.885.885,0,0,0-.316.055.656.656,0,0,0-.255.173.82.82,0,0,0-.17.3,1.367,1.367,0,0,0-.061.432v1.482h-.546Z" transform="translate(-6.199 -7.951)" fill="#fff"/>
  <path id="パス_189" data-name="パス 189" d="M118.429,146.215a1.543,1.543,0,0,1-.111.6,1.359,1.359,0,0,1-.319.468,1.445,1.445,0,0,1-.5.307,1.826,1.826,0,0,1-.644.109,2.348,2.348,0,0,1-.757-.115,1.829,1.829,0,0,1-.653-.4l.37-.462a1.529,1.529,0,0,0,.462.349,1.309,1.309,0,0,0,.565.118,1.263,1.263,0,0,0,.5-.088.866.866,0,0,0,.318-.228.81.81,0,0,0,.167-.319,1.386,1.386,0,0,0,.049-.362v-.425h-.019a.955.955,0,0,1-.428.386,1.34,1.34,0,0,1-.568.125,1.511,1.511,0,0,1-.586-.112,1.4,1.4,0,0,1-.466-.31,1.443,1.443,0,0,1-.3-.468,1.555,1.555,0,0,1-.11-.587,1.7,1.7,0,0,1,.1-.592,1.445,1.445,0,0,1,.3-.483,1.332,1.332,0,0,1,.461-.322,1.531,1.531,0,0,1,.6-.115,1.339,1.339,0,0,1,.568.127,1.039,1.039,0,0,1,.434.359h.012v-.414h.546Zm-1.493-2.418a.979.979,0,0,0-.395.076.876.876,0,0,0-.3.207.916.916,0,0,0-.189.317,1.2,1.2,0,0,0-.067.4.969.969,0,0,0,.256.7,1.04,1.04,0,0,0,1.384,0,.965.965,0,0,0,.256-.7,1.179,1.179,0,0,0-.067-.4.914.914,0,0,0-.189-.317.882.882,0,0,0-.3-.207.982.982,0,0,0-.395-.076" transform="translate(-6.404 -7.951)" fill="#fff"/>
  <path id="パス_190" data-name="パス 190" d="M121.932,141.859h.583v3.753h1.974v.547h-2.557Z" transform="translate(-6.766 -7.871)" fill="#fff"/>
  <path id="パス_191" data-name="パス 191" d="M125.382,143.712a1.53,1.53,0,0,1,.535-.319,1.822,1.822,0,0,1,.607-.106,1.651,1.651,0,0,1,.543.078,1.065,1.065,0,0,1,.374.213.851.851,0,0,1,.215.307.965.965,0,0,1,.071.361v1.471c0,.1,0,.194,0,.28s.01.166.019.243h-.487c-.011-.145-.018-.292-.018-.437h-.012a1.04,1.04,0,0,1-.431.395,1.368,1.368,0,0,1-.577.115,1.351,1.351,0,0,1-.383-.055.938.938,0,0,1-.317-.163.789.789,0,0,1-.216-.271.929.929,0,0,1,.045-.841.948.948,0,0,1,.34-.307,1.651,1.651,0,0,1,.5-.17,3.548,3.548,0,0,1,.617-.052h.4v-.122a.6.6,0,0,0-.17-.415.618.618,0,0,0-.212-.14.821.821,0,0,0-.3-.051,1.093,1.093,0,0,0-.276.03,1.175,1.175,0,0,0-.215.076.983.983,0,0,0-.177.106l-.152.116Zm1.542,1.142a3.833,3.833,0,0,0-.4.021,1.553,1.553,0,0,0-.37.082.726.726,0,0,0-.274.17.385.385,0,0,0-.106.28.4.4,0,0,0,.167.358.818.818,0,0,0,.452.11.872.872,0,0,0,.383-.076.732.732,0,0,0,.255-.2.766.766,0,0,0,.14-.27,1.071,1.071,0,0,0,.042-.3v-.181Z" transform="translate(-6.949 -7.951)" fill="#fff"/>
  <path id="パス_192" data-name="パス 192" d="M128.973,141.551h.546v2.126h.013a.98.98,0,0,1,.418-.356,1.34,1.34,0,0,1,.583-.13,1.532,1.532,0,0,1,.6.115,1.363,1.363,0,0,1,.462.319,1.418,1.418,0,0,1,.295.48,1.69,1.69,0,0,1,.1.6,1.669,1.669,0,0,1-.1.6,1.466,1.466,0,0,1-.295.48,1.343,1.343,0,0,1-.462.322,1.529,1.529,0,0,1-.6.115,1.34,1.34,0,0,1-.568-.128,1.038,1.038,0,0,1-.434-.359h-.013v.414h-.546Zm1.494,4.154a.984.984,0,0,0,.395-.075.881.881,0,0,0,.3-.207.915.915,0,0,0,.189-.316,1.248,1.248,0,0,0,0-.807.915.915,0,0,0-.189-.316.882.882,0,0,0-.3-.207,1.069,1.069,0,0,0-.79,0,.876.876,0,0,0-.3.207.912.912,0,0,0-.189.316,1.247,1.247,0,0,0,0,.807.911.911,0,0,0,.189.316.876.876,0,0,0,.3.207.982.982,0,0,0,.395.075" transform="translate(-7.156 -7.854)" fill="#fff"/>
  <path id="パス_193" data-name="パス 193" d="M33.72,67.44H45.865L68.3,45H33.72a11.28,11.28,0,0,1,0-22.561H90.865L113.3,0H33.72a33.72,33.72,0,0,0,0,67.44" fill="#e5c24e"/>
  <path id="パス_194" data-name="パス 194" d="M117.179,23.758H105.034L82.594,46.2h34.584a11.28,11.28,0,1,1,0,22.561H60.034L37.594,91.2h79.585a33.72,33.72,0,1,0,0-67.44" transform="translate(-2.086 -1.318)" fill="#fff"/>
</svg>
