<svg xmlns="http://www.w3.org/2000/svg" width="834" height="260" viewBox="0 0 834 260">
  <g id="img" transform="translate(-120 -1965)">
    <g id="box" transform="translate(581 -45)">
      <text id="専用施設" transform="translate(348 2164)" fill="#fff" font-size="12" font-family="SourceHanSerif-Medium, Source Han Serif" font-weight="500" letter-spacing="0.025em"><tspan x="-24.45" y="0">専用施設</tspan></text>
      <text id="real" transform="translate(324 2148)" fill="#fff" font-size="26" font-family="Helvetica" letter-spacing="0.025em"><tspan x="0" y="0">real</tspan></text>
    </g>
    <g id="box-2" data-name="box" transform="translate(-157 -45)">
      <text id="家庭用" transform="translate(366 2164)" fill="#fff" font-size="12" font-family="SourceHanSerif-Medium, Source Han Serif" font-weight="500" letter-spacing="0.025em"><tspan x="-18.3" y="0">家庭用</tspan></text>
      <text id="virtual" transform="translate(277 2148)" fill="#fff" font-size="26" font-family="Helvetica" letter-spacing="0.025em"><tspan x="0" y="0">virtual</tspan></text>
    </g>
    <rect id="bdr" width="638" height="1" transform="translate(247 2104)" fill="#fff"/>
    <circle id="bg" cx="130" cy="130" r="130" transform="translate(267 1965)" fill="#1c1c1b" opacity="0.8"/>
    <g id="txt" transform="translate(-24 -19)">
      <text id="e" transform="translate(347 2048)" fill="#fff" font-size="28" font-family="CormorantGaramond-Regular, Cormorant Garamond" letter-spacing="0.025em"><tspan x="0" y="0">e</tspan></text>
      <text id="_-sports" data-name="-sports" transform="translate(358 2049)" fill="#fff" font-size="26" font-family="Helvetica" letter-spacing="0.025em"><tspan x="0" y="0">-sports</tspan></text>
      <text id="領域" transform="translate(482 2048)" fill="#fff" font-size="15" font-family="SourceHanSerif-Medium, Source Han Serif" font-weight="500" letter-spacing="0.025em"><tspan x="-15.188" y="0">領域</tspan></text>
    </g>
    <g id="box-3" data-name="box" transform="translate(-2 -43)">
      <g id="box-4" data-name="box" transform="translate(297 2092)" fill="rgba(0,0,0,0.6)" stroke="#fff" stroke-width="1">
        <rect width="110" height="110" rx="55" stroke="none"/>
        <rect x="0.5" y="0.5" width="109" height="109" rx="54.5" fill="none"/>
      </g>
      <text id="テレビ_ゲーム" data-name="テレビ
ゲーム" transform="translate(297 2128)" fill="#fff" font-size="14" font-family="SourceHanSerif-Medium, Source Han Serif" font-weight="500" letter-spacing="0.025em"><tspan x="-21.21" y="16">テレビ</tspan><tspan x="-21.35" y="34">ゲーム</tspan></text>
    </g>
    <g id="box-5" data-name="box" transform="translate(92 -43)">
      <g id="box-6" data-name="box" transform="translate(297 2092)" fill="rgba(0,0,0,0.6)" stroke="#fff" stroke-width="1">
        <rect width="110" height="110" rx="55" stroke="none"/>
        <rect x="0.5" y="0.5" width="109" height="109" rx="54.5" fill="none"/>
      </g>
      <text id="家庭用_シミュレーター" data-name="家庭用
シミュレーター" transform="translate(297 2128)" fill="#fff" font-size="14" font-family="SourceHanSerif-Medium, Source Han Serif" font-weight="500" letter-spacing="0.025em"><tspan x="-21.35" y="16">家庭用</tspan><tspan x="-49.91" y="34">シミュレーター</tspan></text>
    </g>
    <g id="box-7" data-name="box" transform="translate(303 -52)">
      <rect id="box-8" data-name="box" width="140" height="140" rx="70" transform="translate(292 2087)" fill="#fff"/>
      <g id="logo" transform="translate(323 2126)">
        <path id="パス_157" data-name="パス 157" d="M22.687,118.946l-1.246,1.246a2.1,2.1,0,0,0-1.378-.752.865.865,0,0,0-.53.144.433.433,0,0,0-.192.357.441.441,0,0,0,.122.3,2.249,2.249,0,0,0,.6.372l.737.369a4.344,4.344,0,0,1,1.6,1.172,2.442,2.442,0,0,1-.35,3.184,3.005,3.005,0,0,1-2.1.715,3.344,3.344,0,0,1-2.8-1.37l1.238-1.349a2.871,2.871,0,0,0,.829.667,1.832,1.832,0,0,0,.844.254,1.007,1.007,0,0,0,.641-.192.554.554,0,0,0,.243-.442q0-.465-.877-.907l-.678-.339q-1.945-.98-1.945-2.454a2.13,2.13,0,0,1,.733-1.625,2.663,2.663,0,0,1,1.876-.674,3.256,3.256,0,0,1,2.638,1.327" transform="translate(-9.048 -62.073)" fill="#1a1311"/>
        <path id="パス_158" data-name="パス 158" d="M32.782,111.064a1.231,1.231,0,0,1,.908.383,1.273,1.273,0,0,1,.379.928,1.258,1.258,0,0,1-.375.918,1.217,1.217,0,0,1-.9.38,1.233,1.233,0,0,1-.915-.387,1.293,1.293,0,0,1-.379-.94,1.282,1.282,0,0,1,1.279-1.283m-1.006,4.1,2.012-.8v8.019H31.776Z" transform="translate(-16.626 -58.613)" fill="#1a1311"/>
        <path id="パス_159" data-name="パス 159" d="M40.181,118.832l2.012-1.007v.921a3.434,3.434,0,0,1,1.147-.848,3.346,3.346,0,0,1,1.376-.281,2.555,2.555,0,0,1,1.357.369,2.661,2.661,0,0,1,.974,1.076,3.244,3.244,0,0,1,1.176-1.076,3.21,3.21,0,0,1,1.523-.369,2.82,2.82,0,0,1,1.5.4,2.3,2.3,0,0,1,.933,1.039,5.562,5.562,0,0,1,.284,2.085v4.7H50.44v-4.068a3.484,3.484,0,0,0-.339-1.847,1.161,1.161,0,0,0-1.017-.483,1.543,1.543,0,0,0-.925.295,1.743,1.743,0,0,0-.608.815,5.06,5.06,0,0,0-.2,1.669v3.619H45.325v-3.884a5.457,5.457,0,0,0-.159-1.559,1.41,1.41,0,0,0-.477-.719,1.256,1.256,0,0,0-.768-.236,1.515,1.515,0,0,0-.912.3,1.778,1.778,0,0,0-.613.837,5.162,5.162,0,0,0-.2,1.695v3.567H40.181Z" transform="translate(-21.205 -62.072)" fill="#1a1311"/>
        <path id="パス_160" data-name="パス 160" d="M76.874,111.5v11.115H75.857v-1.379a4.418,4.418,0,0,1-1.455,1.187,4.069,4.069,0,0,1-4.673-.836,4.14,4.14,0,0,1-1.2-3,4.064,4.064,0,0,1,1.216-2.963,3.965,3.965,0,0,1,2.926-1.231,3.778,3.778,0,0,1,1.787.42,4.06,4.06,0,0,1,1.4,1.26v-3.946Zm-4.123,3.884A3.112,3.112,0,0,0,70,117a3.251,3.251,0,0,0,0,3.239,3.16,3.16,0,0,0,1.167,1.2,3.049,3.049,0,0,0,1.572.431,3.223,3.223,0,0,0,1.605-.427,2.987,2.987,0,0,0,1.166-1.156,3.3,3.3,0,0,0,.409-1.642,3.193,3.193,0,0,0-.916-2.326,3.036,3.036,0,0,0-2.256-.935" transform="translate(-36.163 -58.844)" fill="#1a1311"/>
        <path id="パス_161" data-name="パス 161" d="M90.325,117.825h1.054V119a3.694,3.694,0,0,1,.995-1.036,1.963,1.963,0,0,1,1.091-.343,1.887,1.887,0,0,1,.914.273l-.538.869a1.437,1.437,0,0,0-.545-.139,1.493,1.493,0,0,0-.995.423,2.679,2.679,0,0,0-.73,1.316,12.644,12.644,0,0,0-.191,2.772v2.712H90.325Z" transform="translate(-47.668 -62.072)" fill="#1a1311"/>
        <path id="パス_162" data-name="パス 162" d="M100.58,111.064a.851.851,0,0,1,0,1.7.854.854,0,0,1-.844-.847.827.827,0,0,1,.249-.6.811.811,0,0,1,.595-.25m-.512,3.983,1.032-.681v8.018h-1.032Z" transform="translate(-52.635 -58.613)" fill="#1a1311"/>
        <path id="パス_163" data-name="パス 163" d="M105.317,118.056h1.1l2.692,5.845,2.659-5.845h1.106l-3.67,8.019h-.192Z" transform="translate(-55.58 -62.303)" fill="#1a1311"/>
        <path id="パス_164" data-name="パス 164" d="M129.545,123.183l.869.457a4.737,4.737,0,0,1-.989,1.356,3.915,3.915,0,0,1-1.261.785,4.407,4.407,0,0,1-1.586.269,3.833,3.833,0,0,1-3.069-1.286,4.338,4.338,0,0,1-1.106-2.907,4.285,4.285,0,0,1,.936-2.72,3.83,3.83,0,0,1,3.179-1.519,3.956,3.956,0,0,1,3.276,1.556,4.338,4.338,0,0,1,.885,2.742h-7.215a3.264,3.264,0,0,0,.893,2.29,2.847,2.847,0,0,0,2.133.894,3.422,3.422,0,0,0,1.191-.213,3.121,3.121,0,0,0,.985-.565,4.805,4.805,0,0,0,.878-1.138m0-2.16a3.423,3.423,0,0,0-.6-1.319,2.847,2.847,0,0,0-1.044-.8,3.193,3.193,0,0,0-1.365-.3,2.938,2.938,0,0,0-2.029.759,3.431,3.431,0,0,0-.937,1.658Z" transform="translate(-64.598 -62.072)" fill="#1a1311"/>
        <path id="パス_165" data-name="パス 165" d="M24.824,141.859h1.388v.273h-1.1v.641h1.02v.273h-1.02v.689h1.151v.273H24.824Z" transform="translate(-13.101 -74.865)" fill="#1a1311"/>
        <path id="パス_166" data-name="パス 166" d="M29.047,144.035l-.511-.671h.353l.349.51.343-.51h.332l-.492.671L30,144.8h-.352l-.425-.6-.425.6h-.337Z" transform="translate(-15.022 -75.659)" fill="#1a1311"/>
        <path id="パス_167" data-name="パス 167" d="M33.408,143.709a.586.586,0,0,0-.159-.12.456.456,0,0,0-.2-.041.443.443,0,0,0-.2.041.4.4,0,0,0-.14.112.494.494,0,0,0-.085.164.641.641,0,0,0-.029.193.539.539,0,0,0,.033.19.471.471,0,0,0,.094.156.427.427,0,0,0,.145.1.461.461,0,0,0,.191.038.435.435,0,0,0,.2-.041.5.5,0,0,0,.152-.119l.194.194a.606.606,0,0,1-.247.17.861.861,0,0,1-.3.051.812.812,0,0,1-.305-.055.691.691,0,0,1-.238-.153.684.684,0,0,1-.155-.237.821.821,0,0,1-.055-.3.835.835,0,0,1,.055-.307.684.684,0,0,1,.39-.4.815.815,0,0,1,.308-.056.829.829,0,0,1,.3.056.669.669,0,0,1,.25.172Z" transform="translate(-17.051 -75.621)" fill="#1a1311"/>
        <rect id="長方形_6" data-name="長方形 6" width="0.273" height="2.296" transform="translate(16.935 66.848)" fill="#1a1311"/>
        <path id="パス_168" data-name="パス 168" d="M38.89,144.8h-.273v-.222H38.61a.4.4,0,0,1-.179.187.6.6,0,0,1-.295.071.623.623,0,0,1-.2-.032.456.456,0,0,1-.165-.1.48.48,0,0,1-.114-.171.659.659,0,0,1-.042-.248v-.926h.273v.851a.475.475,0,0,0,.027.171.309.309,0,0,0,.073.115.262.262,0,0,0,.1.064.385.385,0,0,0,.123.02.445.445,0,0,0,.158-.027.328.328,0,0,0,.127-.086.414.414,0,0,0,.085-.15.7.7,0,0,0,.03-.216v-.741h.273Z" transform="translate(-19.851 -75.659)" fill="#1a1311"/>
        <path id="パス_169" data-name="パス 169" d="M42.076,143.684a.419.419,0,0,0-.12-.1.349.349,0,0,0-.175-.041.335.335,0,0,0-.168.041.13.13,0,0,0-.072.12.137.137,0,0,0,.041.1.342.342,0,0,0,.1.064.577.577,0,0,0,.12.036l.109.021a1.236,1.236,0,0,1,.166.051.471.471,0,0,1,.134.079.343.343,0,0,1,.088.118.409.409,0,0,1,.032.17.394.394,0,0,1-.052.208.438.438,0,0,1-.133.141.574.574,0,0,1-.187.079.943.943,0,0,1-.211.024.824.824,0,0,1-.314-.055.559.559,0,0,1-.241-.2l.206-.17a.829.829,0,0,0,.149.119.368.368,0,0,0,.2.051.571.571,0,0,0,.1-.01.323.323,0,0,0,.094-.034.206.206,0,0,0,.067-.058.13.13,0,0,0,.026-.08.137.137,0,0,0-.038-.1.268.268,0,0,0-.091-.062.612.612,0,0,0-.112-.036l-.1-.023c-.059-.014-.115-.031-.167-.049a.514.514,0,0,1-.14-.073.339.339,0,0,1-.1-.115.375.375,0,0,1-.036-.173.387.387,0,0,1,.047-.2.411.411,0,0,1,.124-.138.574.574,0,0,1,.176-.082.753.753,0,0,1,.2-.027.731.731,0,0,1,.279.054.445.445,0,0,1,.213.182Z" transform="translate(-21.738 -75.618)" fill="#1a1311"/>
        <path id="パス_170" data-name="パス 170" d="M44.469,142.046a.2.2,0,1,1,.059.142.194.194,0,0,1-.059-.142m.064.517h.273V144h-.273Z" transform="translate(-23.468 -74.858)" fill="#1a1311"/>
        <path id="パス_171" data-name="パス 171" d="M45.992,143.364h.315l.432,1.1.413-1.1h.291l-.565,1.439h-.3Z" transform="translate(-24.272 -75.659)" fill="#1a1311"/>
        <path id="パス_172" data-name="パス 172" d="M49.943,144.143a.359.359,0,0,0,.041.171.417.417,0,0,0,.108.132.489.489,0,0,0,.155.085.567.567,0,0,0,.182.03.405.405,0,0,0,.221-.059.733.733,0,0,0,.173-.156l.206.158a.761.761,0,0,1-.638.295.786.786,0,0,1-.308-.058.67.67,0,0,1-.234-.159.71.71,0,0,1-.147-.24.849.849,0,0,1-.051-.3.79.79,0,0,1,.056-.3.752.752,0,0,1,.155-.24.72.72,0,0,1,.236-.16.76.76,0,0,1,.3-.058.708.708,0,0,1,.323.067.644.644,0,0,1,.217.174.7.7,0,0,1,.123.243,1.021,1.021,0,0,1,.038.275v.1Zm.862-.219a.578.578,0,0,0-.029-.167.371.371,0,0,0-.077-.132.357.357,0,0,0-.129-.088.468.468,0,0,0-.18-.032.443.443,0,0,0-.184.038.453.453,0,0,0-.141.1.464.464,0,0,0-.09.136.37.37,0,0,0-.032.147Z" transform="translate(-26.204 -75.618)" fill="#1a1311"/>
        <path id="パス_173" data-name="パス 173" d="M55.812,141.859h.434l.684,1.627h.012l.677-1.627h.434v2.15h-.292v-1.767h-.006l-.726,1.767h-.195l-.726-1.767H56.1v1.767h-.291Z" transform="translate(-29.454 -74.865)" fill="#1a1311"/>
        <path id="パス_174" data-name="パス 174" d="M61.9,144.143a.359.359,0,0,0,.041.171.417.417,0,0,0,.108.132.489.489,0,0,0,.155.085.567.567,0,0,0,.182.03.405.405,0,0,0,.221-.059.733.733,0,0,0,.173-.156l.206.158a.761.761,0,0,1-.638.295.786.786,0,0,1-.308-.058.67.67,0,0,1-.234-.159.71.71,0,0,1-.147-.24.849.849,0,0,1-.051-.3.79.79,0,0,1,.056-.3.752.752,0,0,1,.155-.24.72.72,0,0,1,.236-.16.76.76,0,0,1,.3-.058.708.708,0,0,1,.323.067.644.644,0,0,1,.217.174.7.7,0,0,1,.123.243,1.021,1.021,0,0,1,.038.275v.1Zm.862-.219a.578.578,0,0,0-.029-.167.371.371,0,0,0-.077-.132.357.357,0,0,0-.129-.088.468.468,0,0,0-.18-.032.443.443,0,0,0-.184.038.453.453,0,0,0-.141.1.464.464,0,0,0-.09.136.37.37,0,0,0-.032.147Z" transform="translate(-32.515 -75.618)" fill="#1a1311"/>
        <path id="パス_175" data-name="パス 175" d="M65.624,143.323h.255v.225h.006a.231.231,0,0,1,.047-.076.477.477,0,0,1,.1-.086.615.615,0,0,1,.14-.07.533.533,0,0,1,.178-.028.513.513,0,0,1,.271.067.5.5,0,0,1,.179.2.462.462,0,0,1,.2-.2.552.552,0,0,1,.258-.067.6.6,0,0,1,.273.054.443.443,0,0,1,.167.145.567.567,0,0,1,.084.2,1.214,1.214,0,0,1,.023.236v.838h-.273v-.8a1.068,1.068,0,0,0-.011-.158.349.349,0,0,0-.044-.134.246.246,0,0,0-.094-.093.389.389,0,0,0-.443.086.534.534,0,0,0-.085.313v.786h-.273v-.753a1.531,1.531,0,0,0-.01-.188.445.445,0,0,0-.043-.148.231.231,0,0,0-.091-.1.308.308,0,0,0-.159-.035.36.36,0,0,0-.142.029.334.334,0,0,0-.12.086.43.43,0,0,0-.082.148.654.654,0,0,0-.03.211v.747h-.273Z" transform="translate(-34.633 -75.619)" fill="#1a1311"/>
        <path id="パス_176" data-name="パス 176" d="M71.359,141.551h.273v1.063h.006a.493.493,0,0,1,.21-.178.665.665,0,0,1,.291-.065.763.763,0,0,1,.3.058.668.668,0,0,1,.231.16.694.694,0,0,1,.147.24.845.845,0,0,1,.052.3.835.835,0,0,1-.052.3.717.717,0,0,1-.147.24.659.659,0,0,1-.231.161.762.762,0,0,1-.3.058.67.67,0,0,1-.284-.064.519.519,0,0,1-.217-.179h-.006v.207h-.273Zm.747,2.077a.492.492,0,0,0,.2-.038.438.438,0,0,0,.149-.1.463.463,0,0,0,.094-.158.632.632,0,0,0,0-.4.463.463,0,0,0-.094-.158.439.439,0,0,0-.149-.1.534.534,0,0,0-.395,0,.443.443,0,0,0-.149.1.457.457,0,0,0-.094.158.623.623,0,0,0,0,.4.456.456,0,0,0,.094.158.443.443,0,0,0,.149.1.492.492,0,0,0,.2.038" transform="translate(-37.659 -74.703)" fill="#1a1311"/>
        <path id="パス_177" data-name="パス 177" d="M75.657,144.143a.359.359,0,0,0,.041.171.417.417,0,0,0,.108.132.489.489,0,0,0,.155.085.566.566,0,0,0,.182.03.405.405,0,0,0,.222-.059.734.734,0,0,0,.173-.156l.206.158a.761.761,0,0,1-.638.295.786.786,0,0,1-.308-.058.67.67,0,0,1-.234-.159.709.709,0,0,1-.147-.24.848.848,0,0,1-.051-.3.79.79,0,0,1,.056-.3.752.752,0,0,1,.155-.24.719.719,0,0,1,.236-.16.76.76,0,0,1,.3-.058.708.708,0,0,1,.324.067.644.644,0,0,1,.217.174.7.7,0,0,1,.123.243,1.022,1.022,0,0,1,.038.275v.1Zm.862-.219a.579.579,0,0,0-.029-.167.371.371,0,0,0-.077-.132.358.358,0,0,0-.129-.088.468.468,0,0,0-.18-.032.443.443,0,0,0-.184.038.453.453,0,0,0-.141.1.465.465,0,0,0-.09.136.37.37,0,0,0-.032.147Z" transform="translate(-39.774 -75.618)" fill="#1a1311"/>
        <path id="パス_178" data-name="パス 178" d="M79.378,143.323h.273v.222h.006a.39.39,0,0,1,.073-.105.5.5,0,0,1,.1-.08.527.527,0,0,1,.124-.053.466.466,0,0,1,.134-.02.387.387,0,0,1,.121.018l-.012.295c-.022-.006-.044-.011-.067-.015a.366.366,0,0,0-.067-.006.4.4,0,0,0-.306.112.494.494,0,0,0-.107.349v.723h-.273Z" transform="translate(-41.891 -75.619)" fill="#1a1311"/>
        <path id="パス_179" data-name="パス 179" d="M82.644,143.684a.419.419,0,0,0-.12-.1.349.349,0,0,0-.175-.041.335.335,0,0,0-.168.041.131.131,0,0,0-.072.12.137.137,0,0,0,.041.1.342.342,0,0,0,.1.064.578.578,0,0,0,.12.036l.109.021a1.236,1.236,0,0,1,.166.051.471.471,0,0,1,.134.079.343.343,0,0,1,.088.118.455.455,0,0,1-.019.378.445.445,0,0,1-.134.141.579.579,0,0,1-.187.079.939.939,0,0,1-.211.024.824.824,0,0,1-.314-.055.561.561,0,0,1-.242-.2l.207-.17a.828.828,0,0,0,.149.119.367.367,0,0,0,.2.051.57.57,0,0,0,.1-.01.336.336,0,0,0,.094-.034.209.209,0,0,0,.067-.058.13.13,0,0,0,.026-.08.137.137,0,0,0-.038-.1.27.27,0,0,0-.091-.062.629.629,0,0,0-.113-.036l-.1-.023c-.059-.014-.115-.031-.167-.049a.514.514,0,0,1-.14-.073.339.339,0,0,1-.1-.115.369.369,0,0,1-.036-.173.386.386,0,0,1,.047-.2.411.411,0,0,1,.124-.138.575.575,0,0,1,.176-.082.755.755,0,0,1,.2-.027.732.732,0,0,1,.28.054.445.445,0,0,1,.213.182Z" transform="translate(-43.147 -75.618)" fill="#1a1311"/>
        <path id="パス_180" data-name="パス 180" d="M85.128,141.55H85.4v1.078h.007a.4.4,0,0,1,.179-.186.59.59,0,0,1,.295-.072.629.629,0,0,1,.2.032.448.448,0,0,1,.167.1.469.469,0,0,1,.114.171.645.645,0,0,1,.042.247v.926H86.13V143a.476.476,0,0,0-.028-.172.306.306,0,0,0-.073-.115.263.263,0,0,0-.1-.064.376.376,0,0,0-.122-.02.452.452,0,0,0-.158.027.328.328,0,0,0-.127.087.4.4,0,0,0-.085.15.68.68,0,0,0-.031.215v.741h-.273Z" transform="translate(-44.926 -74.702)" fill="#1a1311"/>
        <path id="パス_181" data-name="パス 181" d="M88.87,142.046a.2.2,0,1,1,.059.142.193.193,0,0,1-.059-.142m.064.517h.273V144h-.273Z" transform="translate(-46.901 -74.858)" fill="#1a1311"/>
        <path id="パス_182" data-name="パス 182" d="M90.759,143.323h.273v.207h.007a.518.518,0,0,1,.217-.179.67.67,0,0,1,.284-.064.765.765,0,0,1,.3.058.672.672,0,0,1,.231.161.729.729,0,0,1,.147.241.886.886,0,0,1,0,.6.709.709,0,0,1-.147.24.681.681,0,0,1-.231.16.765.765,0,0,1-.3.058.663.663,0,0,1-.291-.066.486.486,0,0,1-.209-.178h-.007v1.063h-.273Zm.747.219a.49.49,0,0,0-.2.038.438.438,0,0,0-.149.1.458.458,0,0,0-.094.158.623.623,0,0,0,0,.4.457.457,0,0,0,.094.158.438.438,0,0,0,.149.1.535.535,0,0,0,.395,0,.441.441,0,0,0,.148-.1.458.458,0,0,0,.094-.158.623.623,0,0,0,0-.4.458.458,0,0,0-.094-.158.441.441,0,0,0-.148-.1.491.491,0,0,0-.2-.038" transform="translate(-47.898 -75.619)" fill="#1a1311"/>
        <path id="パス_183" data-name="パス 183" d="M97.036,141.858h.75a1.37,1.37,0,0,1,.4.052,1.056,1.056,0,0,1,.3.138.871.871,0,0,1,.21.2,1.063,1.063,0,0,1,.132.23,1.2,1.2,0,0,1,.07.237,1.242,1.242,0,0,1,.021.219,1.07,1.07,0,0,1-.076.4,1,1,0,0,1-.224.343,1.1,1.1,0,0,1-.369.241,1.319,1.319,0,0,1-.509.091h-.7Zm.291,1.877h.367a1.22,1.22,0,0,0,.351-.05.86.86,0,0,0,.29-.151.717.717,0,0,0,.2-.25.8.8,0,0,0,.073-.351,1.042,1.042,0,0,0-.033-.241.732.732,0,0,0-.127-.263.749.749,0,0,0-.256-.211.909.909,0,0,0-.425-.086h-.437Z" transform="translate(-51.21 -74.865)" fill="#1a1311"/>
        <path id="パス_184" data-name="パス 184" d="M102.012,143.323h.273v.222h.007a.389.389,0,0,1,.073-.105.49.49,0,0,1,.1-.08.516.516,0,0,1,.123-.053.464.464,0,0,1,.134-.02.392.392,0,0,1,.121.018l-.012.295c-.023-.006-.044-.011-.067-.015a.362.362,0,0,0-.067-.006.4.4,0,0,0-.306.112.492.492,0,0,0-.107.349v.723h-.273Z" transform="translate(-53.836 -75.619)" fill="#1a1311"/>
        <path id="パス_185" data-name="パス 185" d="M104.559,142.046a.2.2,0,1,1,.2.2.2.2,0,0,1-.2-.2m.064.517h.273V144h-.273Z" transform="translate(-55.18 -74.858)" fill="#1a1311"/>
        <path id="パス_186" data-name="パス 186" d="M106.082,143.364h.316l.431,1.1.413-1.1h.291l-.565,1.439h-.3Z" transform="translate(-55.984 -75.659)" fill="#1a1311"/>
        <path id="パス_187" data-name="パス 187" d="M109.832,142.046a.2.2,0,1,1,.059.142.192.192,0,0,1-.059-.142m.063.517h.273V144H109.9Z" transform="translate(-57.963 -74.858)" fill="#1a1311"/>
        <path id="パス_188" data-name="パス 188" d="M111.721,143.323h.273v.222H112a.4.4,0,0,1,.179-.187.594.594,0,0,1,.295-.071.626.626,0,0,1,.2.032.444.444,0,0,1,.167.1.473.473,0,0,1,.114.171.649.649,0,0,1,.043.248v.926h-.273v-.851a.462.462,0,0,0-.028-.171.3.3,0,0,0-.073-.115.258.258,0,0,0-.1-.064.379.379,0,0,0-.122-.02.443.443,0,0,0-.158.027.328.328,0,0,0-.128.086.41.41,0,0,0-.085.15.683.683,0,0,0-.031.216v.741h-.273Z" transform="translate(-58.96 -75.619)" fill="#1a1311"/>
        <path id="パス_189" data-name="パス 189" d="M116.917,144.751a.771.771,0,0,1-.056.3.679.679,0,0,1-.16.234.723.723,0,0,1-.249.154.912.912,0,0,1-.322.054,1.173,1.173,0,0,1-.378-.058.914.914,0,0,1-.326-.2l.185-.231a.764.764,0,0,0,.231.175.654.654,0,0,0,.282.059.631.631,0,0,0,.252-.044.433.433,0,0,0,.159-.114.4.4,0,0,0,.084-.16.693.693,0,0,0,.025-.181v-.213h-.009a.478.478,0,0,1-.214.193.67.67,0,0,1-.284.062.755.755,0,0,1-.293-.056.7.7,0,0,1-.233-.155.722.722,0,0,1-.152-.234.777.777,0,0,1-.055-.293.849.849,0,0,1,.051-.3.722.722,0,0,1,.148-.241.666.666,0,0,1,.23-.161.765.765,0,0,1,.3-.058.67.67,0,0,1,.284.064.52.52,0,0,1,.217.179h.006v-.207h.273Zm-.747-1.209a.49.49,0,0,0-.2.038.438.438,0,0,0-.149.1.458.458,0,0,0-.094.158.6.6,0,0,0-.034.2.484.484,0,0,0,.128.351.52.52,0,0,0,.692,0,.482.482,0,0,0,.128-.351.59.59,0,0,0-.034-.2.457.457,0,0,0-.094-.158.441.441,0,0,0-.148-.1.491.491,0,0,0-.2-.038" transform="translate(-60.904 -75.619)" fill="#1a1311"/>
        <path id="パス_190" data-name="パス 190" d="M121.932,141.859h.291v1.877h.987v.273h-1.278Z" transform="translate(-64.349 -74.865)" fill="#1a1311"/>
        <path id="パス_191" data-name="パス 191" d="M125.306,143.5a.765.765,0,0,1,.267-.16.912.912,0,0,1,.3-.053.826.826,0,0,1,.271.039.532.532,0,0,1,.187.106.426.426,0,0,1,.108.153.483.483,0,0,1,.035.18v.735c0,.05,0,.1,0,.14s.005.083.009.121h-.243c-.006-.073-.009-.146-.009-.219h-.006a.52.52,0,0,1-.215.2.684.684,0,0,1-.289.058.675.675,0,0,1-.192-.027.469.469,0,0,1-.159-.082.394.394,0,0,1-.108-.136.465.465,0,0,1,.023-.42.474.474,0,0,1,.17-.154.826.826,0,0,1,.252-.085,1.775,1.775,0,0,1,.308-.026h.2v-.061a.3.3,0,0,0-.021-.109.294.294,0,0,0-.064-.1.309.309,0,0,0-.106-.07.411.411,0,0,0-.152-.025.547.547,0,0,0-.138.015.588.588,0,0,0-.108.038.49.49,0,0,0-.088.053l-.076.058Zm.771.571a1.916,1.916,0,0,0-.2.01.775.775,0,0,0-.185.041.363.363,0,0,0-.137.085.192.192,0,0,0-.053.14.2.2,0,0,0,.084.179.409.409,0,0,0,.226.055.436.436,0,0,0,.191-.038.365.365,0,0,0,.128-.1.383.383,0,0,0,.07-.135.535.535,0,0,0,.021-.148v-.091Z" transform="translate(-66.089 -75.619)" fill="#1a1311"/>
        <path id="パス_192" data-name="パス 192" d="M128.973,141.551h.273v1.063h.007a.49.49,0,0,1,.209-.178.67.67,0,0,1,.291-.065.766.766,0,0,1,.3.058.681.681,0,0,1,.231.16.709.709,0,0,1,.147.24.845.845,0,0,1,.051.3.835.835,0,0,1-.051.3.733.733,0,0,1-.147.24.672.672,0,0,1-.231.161.764.764,0,0,1-.3.058.67.67,0,0,1-.284-.064.519.519,0,0,1-.217-.179h-.007v.207h-.273Zm.747,2.077a.492.492,0,0,0,.2-.038.441.441,0,0,0,.148-.1.458.458,0,0,0,.094-.158.624.624,0,0,0,0-.4.458.458,0,0,0-.094-.158.441.441,0,0,0-.148-.1.534.534,0,0,0-.395,0,.438.438,0,0,0-.149.1.456.456,0,0,0-.095.158.624.624,0,0,0,0,.4.456.456,0,0,0,.095.158.438.438,0,0,0,.149.1.491.491,0,0,0,.2.038" transform="translate(-68.065 -74.703)" fill="#1a1311"/>
        <path id="パス_193" data-name="パス 193" d="M16.86,33.72h6.072L34.152,22.5H16.86a5.64,5.64,0,0,1,0-11.28H45.432L56.652,0H16.86a16.86,16.86,0,0,0,0,33.72" fill="#727272"/>
        <path id="パス_194" data-name="パス 194" d="M77.386,23.758H71.314l-11.22,11.22H77.386a5.64,5.64,0,1,1,0,11.28H48.814l-11.22,11.22H77.386a16.86,16.86,0,1,0,0-33.72" transform="translate(-19.84 -12.538)" fill="#1a1311"/>
      </g>
    </g>
    <g id="box-9" data-name="box" transform="translate(423 -40)">
      <g id="box-10" data-name="box" transform="translate(292 2075)" fill="rgba(0,0,0,0.8)" stroke="#fff" stroke-width="1">
        <rect width="140" height="140" rx="70" stroke="none"/>
        <rect x="0.5" y="0.5" width="139" height="139" rx="69.5" fill="none"/>
      </g>
      <text id="f1" transform="translate(321.5 2131.319)" fill="#fff" font-size="22" font-family="Helvetica" letter-spacing="0.025em"><tspan x="0" y="0">f1</tspan></text>
      <text id="チームや" transform="translate(373.5 2131.2)" fill="#fff" font-size="14" font-family="SourceHanSerif-Medium, Source Han Serif" font-weight="500" letter-spacing="0.025em"><tspan x="-28.525" y="0">チームや</tspan></text>
      <text id="自動車メーカーの_シミュレーター" data-name="自動車メーカーの
シミュレーター" transform="translate(362 2149.681)" fill="#fff" font-size="14" font-family="SourceHanSerif-Medium, Source Han Serif" font-weight="500" letter-spacing="0.025em"><tspan x="-57.085" y="0">自動車</tspan><tspan y="0">メーカーの</tspan><tspan x="-49.91" y="18">シミュレーター</tspan></text>
    </g>
  </g>
</svg>
