<svg xmlns="http://www.w3.org/2000/svg" width="295" height="715" viewBox="0 0 295 715">
  <g id="img" transform="translate(-149 -1970)">
    <g id="box" transform="translate(-57 518)">
      <text id="専用施設" transform="translate(354 2164)" fill="#fff" font-size="12" font-family="SourceHanSerif-Medium, Source Han Serif" font-weight="500" letter-spacing="0.025em"><tspan x="-24.45" y="0">専用施設</tspan></text>
      <text id="real" transform="translate(324 2148)" fill="#fff" font-size="24" font-family="Helvetica" letter-spacing="0.025em"><tspan x="0" y="0">real</tspan></text>
    </g>
    <g id="box-2" data-name="box" transform="translate(-34 -160)">
      <text id="家庭用" transform="translate(327 2164)" fill="#fff" font-size="12" font-family="SourceHanSerif-Medium, Source Han Serif" font-weight="500" letter-spacing="0.025em"><tspan x="-18.3" y="0">家庭用</tspan></text>
      <text id="virtual" transform="translate(277 2148)" fill="#fff" font-size="24" font-family="Helvetica" letter-spacing="0.025em"><tspan x="0" y="0">virtual</tspan></text>
    </g>
    <rect id="bdr" width="1" height="605" transform="translate(296 2027)" fill="#fff"/>
    <circle id="bg" cx="147.5" cy="147.5" r="147.5" transform="translate(149 2047)" fill="#1c1c1b" opacity="0.8"/>
    <g id="txt" transform="translate(-111 47)">
      <text id="e" transform="translate(350 2048)" fill="#fff" font-size="22" font-family="CormorantGaramond-Regular, Cormorant Garamond" letter-spacing="0.025em"><tspan x="0" y="0">e</tspan></text>
      <text id="_-sports" data-name="-sports" transform="translate(358 2049)" fill="#fff" font-size="20" font-family="Helvetica" letter-spacing="0.025em"><tspan x="0" y="0">-sports</tspan></text>
      <text id="領域" transform="translate(454 2049)" fill="#fff" font-size="12" font-family="SourceHanSerif-Medium, Source Han Serif" font-weight="500" letter-spacing="0.025em"><tspan x="-12.15" y="0">領域</tspan></text>
    </g>
    <g id="box-3" data-name="box" transform="translate(-55 20)">
      <g id="box-4" data-name="box" transform="translate(297 2092)" fill="rgba(0,0,0,0.6)" stroke="#fff" stroke-width="1">
        <rect width="110" height="110" rx="55" stroke="none"/>
        <rect x="0.5" y="0.5" width="109" height="109" rx="54.5" fill="none"/>
      </g>
      <text id="テレビゲーム" transform="translate(297 2138)" fill="#fff" font-size="13" font-family="SourceHanSerif-Medium, Source Han Serif" font-weight="500" letter-spacing="0.025em"><tspan x="-39.682" y="15">テレビゲーム</tspan></text>
    </g>
    <g id="box-5" data-name="box" transform="translate(-55 110)">
      <g id="box-6" data-name="box" transform="translate(297 2092)" fill="rgba(0,0,0,0.6)" stroke="#fff" stroke-width="1">
        <rect width="110" height="110" rx="55" stroke="none"/>
        <rect x="0.5" y="0.5" width="109" height="109" rx="54.5" fill="none"/>
      </g>
      <text id="家庭用_シミュレーター" data-name="家庭用
シミュレーター" transform="translate(297 2128)" fill="#fff" font-size="13" font-family="SourceHanSerif-Medium, Source Han Serif" font-weight="500" letter-spacing="0.025em"><tspan x="-19.825" y="15">家庭用</tspan><tspan x="-46.345" y="31">シミュレーター</tspan></text>
    </g>
    <g id="box-7" data-name="box" transform="translate(-65 305)">
      <rect id="box-8" data-name="box" width="120" height="120" rx="60" transform="translate(302 2087)" fill="#fff"/>
      <g id="logo" transform="translate(332 2119)">
        <path id="パス_157" data-name="パス 157" d="M21.579,118.68l-1,1a1.683,1.683,0,0,0-1.1-.6.692.692,0,0,0-.424.115.346.346,0,0,0-.154.286.352.352,0,0,0,.1.239,1.8,1.8,0,0,0,.481.3l.59.3a3.475,3.475,0,0,1,1.28.937,1.953,1.953,0,0,1-.28,2.547,2.4,2.4,0,0,1-1.684.572,2.675,2.675,0,0,1-2.24-1.1l.991-1.079a2.3,2.3,0,0,0,.663.534,1.466,1.466,0,0,0,.675.2.806.806,0,0,0,.513-.153.444.444,0,0,0,.195-.354q0-.372-.7-.725l-.543-.271q-1.556-.784-1.556-1.963a1.7,1.7,0,0,1,.586-1.3,2.13,2.13,0,0,1,1.5-.54,2.6,2.6,0,0,1,2.111,1.061" transform="translate(-10.668 -73.182)" fill="#1a1311"/>
        <path id="パス_158" data-name="パス 158" d="M32.526,111.064a.984.984,0,0,1,.726.307,1.019,1.019,0,0,1,.3.743,1.007,1.007,0,0,1-.3.734.973.973,0,0,1-.717.3.986.986,0,0,1-.732-.309,1.035,1.035,0,0,1-.3-.752,1.025,1.025,0,0,1,1.023-1.026m-.8,3.278,1.609-.636v6.415H31.721Z" transform="translate(-19.601 -69.103)" fill="#1a1311"/>
        <path id="パス_159" data-name="パス 159" d="M40.181,118.589l1.609-.805v.737a2.748,2.748,0,0,1,.918-.678,2.677,2.677,0,0,1,1.1-.224,2.044,2.044,0,0,1,1.085.3,2.129,2.129,0,0,1,.779.861,2.6,2.6,0,0,1,.941-.861,2.568,2.568,0,0,1,1.218-.3,2.256,2.256,0,0,1,1.2.318,1.84,1.84,0,0,1,.747.832,4.449,4.449,0,0,1,.227,1.668V124.2H48.388v-3.254a2.787,2.787,0,0,0-.271-1.477.929.929,0,0,0-.814-.386,1.235,1.235,0,0,0-.74.236,1.4,1.4,0,0,0-.487.652,4.048,4.048,0,0,0-.159,1.335v2.9H44.3v-3.107a4.365,4.365,0,0,0-.127-1.247,1.128,1.128,0,0,0-.381-.575,1,1,0,0,0-.615-.189,1.212,1.212,0,0,0-.73.239,1.423,1.423,0,0,0-.49.669,4.129,4.129,0,0,0-.163,1.356V124.2H40.181Z" transform="translate(-25 -73.181)" fill="#1a1311"/>
        <path id="パス_160" data-name="パス 160" d="M75.2,111.5v8.892h-.813v-1.1a3.534,3.534,0,0,1-1.164.949,3.255,3.255,0,0,1-3.738-.669,3.312,3.312,0,0,1-.964-2.4,3.251,3.251,0,0,1,.973-2.37,3.172,3.172,0,0,1,2.34-.985,3.023,3.023,0,0,1,1.43.336,3.248,3.248,0,0,1,1.123,1.008V112Zm-3.3,3.107a2.489,2.489,0,0,0-2.2,1.29,2.6,2.6,0,0,0,0,2.591,2.528,2.528,0,0,0,.934.963,2.439,2.439,0,0,0,1.257.345,2.578,2.578,0,0,0,1.284-.342,2.389,2.389,0,0,0,.933-.925,2.639,2.639,0,0,0,.327-1.313,2.554,2.554,0,0,0-.733-1.861,2.429,2.429,0,0,0-1.805-.748" transform="translate(-42.635 -69.375)" fill="#1a1311"/>
        <path id="パス_161" data-name="パス 161" d="M90.325,117.783h.843v.937a2.955,2.955,0,0,1,.8-.829,1.57,1.57,0,0,1,.873-.274,1.509,1.509,0,0,1,.731.218l-.43.7a1.149,1.149,0,0,0-.436-.111,1.194,1.194,0,0,0-.8.339,2.143,2.143,0,0,0-.584,1.053,10.115,10.115,0,0,0-.153,2.217v2.17h-.843Z" transform="translate(-56.2 -73.181)" fill="#1a1311"/>
        <path id="パス_162" data-name="パス 162" d="M100.411,111.064a.681.681,0,0,1,0,1.362.683.683,0,0,1-.675-.678.661.661,0,0,1,.2-.484.649.649,0,0,1,.476-.2m-.41,3.187.826-.545v6.415H100Z" transform="translate(-62.055 -69.103)" fill="#1a1311"/>
        <path id="パス_163" data-name="パス 163" d="M105.317,118.056h.878l2.153,4.676,2.127-4.676h.884l-2.936,6.415h-.153Z" transform="translate(-65.528 -73.454)" fill="#1a1311"/>
        <path id="パス_164" data-name="パス 164" d="M128.117,122.07l.7.365a3.79,3.79,0,0,1-.791,1.085,3.132,3.132,0,0,1-1.009.628,3.526,3.526,0,0,1-1.269.215,3.066,3.066,0,0,1-2.455-1.029,3.471,3.471,0,0,1-.885-2.326,3.428,3.428,0,0,1,.749-2.176,3.064,3.064,0,0,1,2.543-1.215,3.164,3.164,0,0,1,2.62,1.244,3.471,3.471,0,0,1,.708,2.194h-5.772a2.612,2.612,0,0,0,.714,1.832,2.277,2.277,0,0,0,1.706.715,2.737,2.737,0,0,0,.953-.17,2.5,2.5,0,0,0,.788-.452,3.844,3.844,0,0,0,.7-.91m0-1.728a2.739,2.739,0,0,0-.481-1.056,2.277,2.277,0,0,0-.835-.637,2.554,2.554,0,0,0-1.092-.242,2.351,2.351,0,0,0-1.623.608,2.745,2.745,0,0,0-.75,1.326Z" transform="translate(-76.159 -73.181)" fill="#1a1311"/>
        <path id="パス_165" data-name="パス 165" d="M24.824,141.859h1.11v.219h-.877v.513h.816v.219h-.816v.551h.921v.219H24.824Z" transform="translate(-15.446 -88.264)" fill="#1a1311"/>
        <path id="パス_166" data-name="パス 166" d="M28.93,143.9l-.408-.537H28.8l.279.408.274-.408h.265l-.394.537.466.615h-.282l-.34-.483-.34.483h-.27Z" transform="translate(-17.71 -89.2)" fill="#1a1311"/>
        <path id="パス_167" data-name="パス 167" d="M33.189,143.625a.469.469,0,0,0-.127-.1.365.365,0,0,0-.159-.033.355.355,0,0,0-.156.033.322.322,0,0,0-.112.09.4.4,0,0,0-.068.131.512.512,0,0,0-.023.154.431.431,0,0,0,.026.152.377.377,0,0,0,.076.125.341.341,0,0,0,.116.084.369.369,0,0,0,.153.03.348.348,0,0,0,.158-.033.4.4,0,0,0,.122-.1l.155.155a.485.485,0,0,1-.2.136.689.689,0,0,1-.239.041.65.65,0,0,1-.244-.044.553.553,0,0,1-.191-.122.547.547,0,0,1-.124-.19.657.657,0,0,1-.044-.244.668.668,0,0,1,.044-.246.547.547,0,0,1,.312-.317.652.652,0,0,1,.247-.045.663.663,0,0,1,.242.045.535.535,0,0,1,.2.137Z" transform="translate(-20.103 -89.156)" fill="#1a1311"/>
        <rect id="長方形_6" data-name="長方形 6" width="0.219" height="1.837" transform="translate(13.548 53.478)" fill="#1a1311"/>
        <path id="パス_168" data-name="パス 168" d="M38.634,144.516h-.219v-.178h0a.323.323,0,0,1-.143.15.478.478,0,0,1-.236.057.5.5,0,0,1-.161-.025.365.365,0,0,1-.132-.079.384.384,0,0,1-.091-.137.528.528,0,0,1-.034-.2v-.741h.219v.68a.38.38,0,0,0,.022.137.247.247,0,0,0,.058.092.209.209,0,0,0,.084.051.308.308,0,0,0,.1.016.356.356,0,0,0,.127-.022.262.262,0,0,0,.1-.069.331.331,0,0,0,.068-.12.559.559,0,0,0,.024-.173v-.593h.219Z" transform="translate(-23.403 -89.2)" fill="#1a1311"/>
        <path id="パス_169" data-name="パス 169" d="M41.9,143.6a.335.335,0,0,0-.1-.081.279.279,0,0,0-.14-.033.268.268,0,0,0-.134.033.1.1,0,0,0-.057.1.11.11,0,0,0,.033.083.273.273,0,0,0,.078.051.462.462,0,0,0,.1.029l.087.017a.989.989,0,0,1,.133.041A.377.377,0,0,1,42,143.9a.275.275,0,0,1,.07.095.327.327,0,0,1,.026.136.315.315,0,0,1-.042.167.35.35,0,0,1-.107.113.459.459,0,0,1-.15.063.754.754,0,0,1-.169.019.659.659,0,0,1-.251-.044.447.447,0,0,1-.193-.16l.165-.136a.663.663,0,0,0,.119.095.3.3,0,0,0,.16.041.457.457,0,0,0,.084-.008.258.258,0,0,0,.075-.027.165.165,0,0,0,.054-.047.1.1,0,0,0,.021-.064.11.11,0,0,0-.031-.08.214.214,0,0,0-.073-.05.489.489,0,0,0-.09-.029l-.083-.019c-.047-.011-.092-.025-.134-.039a.411.411,0,0,1-.112-.058.272.272,0,0,1-.078-.092.3.3,0,0,1-.029-.139.309.309,0,0,1,.038-.156.329.329,0,0,1,.1-.111.459.459,0,0,1,.141-.066.6.6,0,0,1,.159-.022.585.585,0,0,1,.223.043.356.356,0,0,1,.17.146Z" transform="translate(-25.628 -89.152)" fill="#1a1311"/>
        <path id="パス_170" data-name="パス 170" d="M44.469,142.006a.161.161,0,1,1,.047.113.155.155,0,0,1-.047-.113m.051.413h.219v1.152H44.52Z" transform="translate(-27.668 -88.256)" fill="#1a1311"/>
        <path id="パス_171" data-name="パス 171" d="M45.992,143.364h.252l.345.882.331-.882h.233l-.452,1.152h-.24Z" transform="translate(-28.616 -89.2)" fill="#1a1311"/>
        <path id="パス_172" data-name="パス 172" d="M49.885,143.971a.287.287,0,0,0,.033.137.333.333,0,0,0,.086.105.391.391,0,0,0,.124.068.454.454,0,0,0,.146.024.324.324,0,0,0,.177-.047.587.587,0,0,0,.139-.125l.165.126a.608.608,0,0,1-.51.236A.629.629,0,0,1,50,144.45a.536.536,0,0,1-.187-.127.568.568,0,0,1-.118-.192.679.679,0,0,1-.041-.24.632.632,0,0,1,.045-.239.6.6,0,0,1,.124-.192.576.576,0,0,1,.189-.128.609.609,0,0,1,.238-.046.566.566,0,0,1,.259.054.515.515,0,0,1,.173.139.558.558,0,0,1,.1.195.817.817,0,0,1,.03.22v.078Zm.69-.175a.463.463,0,0,0-.023-.134.3.3,0,0,0-.062-.106.286.286,0,0,0-.1-.07.375.375,0,0,0-.144-.026.355.355,0,0,0-.147.03.362.362,0,0,0-.113.079.371.371,0,0,0-.072.108.3.3,0,0,0-.025.118Z" transform="translate(-30.893 -89.152)" fill="#1a1311"/>
        <path id="パス_173" data-name="パス 173" d="M55.812,141.859h.347l.547,1.3h.009l.542-1.3H57.6v1.72h-.233v-1.414h0l-.581,1.414H56.63l-.581-1.414h0v1.414h-.233Z" transform="translate(-34.726 -88.264)" fill="#1a1311"/>
        <path id="パス_174" data-name="パス 174" d="M61.845,143.971a.287.287,0,0,0,.033.137.334.334,0,0,0,.086.105.391.391,0,0,0,.124.068.453.453,0,0,0,.146.024.324.324,0,0,0,.177-.047.587.587,0,0,0,.139-.125l.165.126a.608.608,0,0,1-.51.236.629.629,0,0,1-.246-.047.536.536,0,0,1-.187-.127.568.568,0,0,1-.118-.192.679.679,0,0,1-.041-.24.632.632,0,0,1,.045-.239.6.6,0,0,1,.124-.192.576.576,0,0,1,.189-.128.609.609,0,0,1,.238-.046.566.566,0,0,1,.259.054.515.515,0,0,1,.173.139.558.558,0,0,1,.1.195.817.817,0,0,1,.03.22v.078Zm.69-.175a.462.462,0,0,0-.023-.134.3.3,0,0,0-.062-.106.286.286,0,0,0-.1-.07.375.375,0,0,0-.144-.026.355.355,0,0,0-.147.03.363.363,0,0,0-.113.079.371.371,0,0,0-.072.108.3.3,0,0,0-.025.118Z" transform="translate(-38.335 -89.152)" fill="#1a1311"/>
        <path id="パス_175" data-name="パス 175" d="M65.624,143.316h.2v.18h0a.185.185,0,0,1,.037-.061.381.381,0,0,1,.078-.069.492.492,0,0,1,.112-.056.426.426,0,0,1,.142-.023.41.41,0,0,1,.216.053.4.4,0,0,1,.143.16.37.37,0,0,1,.158-.16.441.441,0,0,1,.206-.053.479.479,0,0,1,.219.043.354.354,0,0,1,.134.116.453.453,0,0,1,.067.162.971.971,0,0,1,.018.189v.671h-.219v-.641a.854.854,0,0,0-.009-.127.279.279,0,0,0-.035-.107.2.2,0,0,0-.075-.074.311.311,0,0,0-.355.069.428.428,0,0,0-.068.251v.629h-.219v-.6a1.225,1.225,0,0,0-.008-.15.356.356,0,0,0-.034-.118.185.185,0,0,0-.073-.077.247.247,0,0,0-.127-.028.288.288,0,0,0-.113.023.267.267,0,0,0-.1.069.344.344,0,0,0-.065.118.524.524,0,0,0-.024.168v.6h-.219Z" transform="translate(-40.831 -89.153)" fill="#1a1311"/>
        <path id="パス_176" data-name="パス 176" d="M71.359,141.551h.219v.85h0a.394.394,0,0,1,.168-.142.532.532,0,0,1,.233-.052.611.611,0,0,1,.241.046.535.535,0,0,1,.185.128.556.556,0,0,1,.118.192.676.676,0,0,1,.042.239.668.668,0,0,1-.042.238.573.573,0,0,1-.118.192.527.527,0,0,1-.185.129.609.609,0,0,1-.241.046.536.536,0,0,1-.227-.051.415.415,0,0,1-.174-.144h0v.165h-.219Zm.6,1.662a.394.394,0,0,0,.158-.03.351.351,0,0,0,.119-.083.37.37,0,0,0,.076-.127.505.505,0,0,0,0-.323.371.371,0,0,0-.076-.127.351.351,0,0,0-.119-.083.427.427,0,0,0-.316,0,.354.354,0,0,0-.119.083.365.365,0,0,0-.075.127.5.5,0,0,0,0,.323.365.365,0,0,0,.075.127.354.354,0,0,0,.119.083.394.394,0,0,0,.158.03" transform="translate(-44.399 -88.072)" fill="#1a1311"/>
        <path id="パス_177" data-name="パス 177" d="M75.6,143.971a.287.287,0,0,0,.033.137.333.333,0,0,0,.086.105.391.391,0,0,0,.124.068.453.453,0,0,0,.146.024.324.324,0,0,0,.177-.047.587.587,0,0,0,.139-.125l.165.126a.608.608,0,0,1-.51.236.629.629,0,0,1-.246-.047.536.536,0,0,1-.187-.127.567.567,0,0,1-.118-.192.678.678,0,0,1-.041-.24.632.632,0,0,1,.045-.239.6.6,0,0,1,.124-.192.576.576,0,0,1,.189-.128.609.609,0,0,1,.238-.046.566.566,0,0,1,.259.054.516.516,0,0,1,.173.139.557.557,0,0,1,.1.195.818.818,0,0,1,.03.22v.078Zm.69-.175a.464.464,0,0,0-.023-.134.3.3,0,0,0-.062-.106.286.286,0,0,0-.1-.07.375.375,0,0,0-.144-.026.355.355,0,0,0-.147.03.362.362,0,0,0-.113.079.372.372,0,0,0-.072.108.3.3,0,0,0-.025.118Z" transform="translate(-46.892 -89.152)" fill="#1a1311"/>
        <path id="パス_178" data-name="パス 178" d="M79.378,143.316H79.6v.178h0a.312.312,0,0,1,.059-.084.4.4,0,0,1,.081-.064.422.422,0,0,1,.1-.042.373.373,0,0,1,.107-.016.31.31,0,0,1,.1.014l-.009.236-.053-.012a.293.293,0,0,0-.054,0,.32.32,0,0,0-.245.09.4.4,0,0,0-.085.28v.578h-.218Z" transform="translate(-49.389 -89.153)" fill="#1a1311"/>
        <path id="パス_179" data-name="パス 179" d="M82.467,143.6a.335.335,0,0,0-.1-.081.279.279,0,0,0-.14-.033.268.268,0,0,0-.135.033.1.1,0,0,0-.057.1.11.11,0,0,0,.033.083.273.273,0,0,0,.078.051.462.462,0,0,0,.1.029l.087.017a.989.989,0,0,1,.133.041.377.377,0,0,1,.107.063.275.275,0,0,1,.07.095.364.364,0,0,1-.015.3.356.356,0,0,1-.107.113.463.463,0,0,1-.15.063.751.751,0,0,1-.169.019.659.659,0,0,1-.251-.044.448.448,0,0,1-.193-.16l.165-.136a.662.662,0,0,0,.119.095.294.294,0,0,0,.16.041.457.457,0,0,0,.084-.008.269.269,0,0,0,.076-.027.167.167,0,0,0,.053-.047.1.1,0,0,0,.02-.064.109.109,0,0,0-.03-.08.216.216,0,0,0-.073-.05.5.5,0,0,0-.09-.029l-.084-.019c-.047-.011-.092-.025-.134-.039a.411.411,0,0,1-.112-.058.272.272,0,0,1-.078-.092.3.3,0,0,1-.029-.139.309.309,0,0,1,.038-.156.329.329,0,0,1,.1-.111.46.46,0,0,1,.141-.066.6.6,0,0,1,.159-.022.585.585,0,0,1,.224.043.356.356,0,0,1,.17.146Z" transform="translate(-50.869 -89.152)" fill="#1a1311"/>
        <path id="パス_180" data-name="パス 180" d="M85.128,141.55h.218v.862h.005a.319.319,0,0,1,.143-.149.471.471,0,0,1,.236-.057.5.5,0,0,1,.159.026.359.359,0,0,1,.133.079.375.375,0,0,1,.091.137.516.516,0,0,1,.034.2v.741H85.93v-.68a.382.382,0,0,0-.022-.138.245.245,0,0,0-.059-.092.21.21,0,0,0-.084-.051.3.3,0,0,0-.1-.016.361.361,0,0,0-.127.022.263.263,0,0,0-.1.069.32.32,0,0,0-.068.12.544.544,0,0,0-.025.172v.593h-.218Z" transform="translate(-52.966 -88.072)" fill="#1a1311"/>
        <path id="パス_181" data-name="パス 181" d="M88.87,142.006a.161.161,0,1,1,.047.113.154.154,0,0,1-.047-.113m.051.413h.218v1.152h-.218Z" transform="translate(-55.294 -88.256)" fill="#1a1311"/>
        <path id="パス_182" data-name="パス 182" d="M90.759,143.316h.218v.165h.005a.415.415,0,0,1,.173-.144.535.535,0,0,1,.227-.051.612.612,0,0,1,.242.046.538.538,0,0,1,.185.129.584.584,0,0,1,.118.193.67.67,0,0,1,.041.237.677.677,0,0,1-.041.239.568.568,0,0,1-.118.192.545.545,0,0,1-.185.128.612.612,0,0,1-.242.046.53.53,0,0,1-.233-.053.389.389,0,0,1-.167-.142h-.005v.85h-.218Zm.6.175a.392.392,0,0,0-.158.03.35.35,0,0,0-.119.083.366.366,0,0,0-.076.127.5.5,0,0,0,0,.323.365.365,0,0,0,.076.127.35.35,0,0,0,.119.083.428.428,0,0,0,.316,0,.352.352,0,0,0,.119-.083.366.366,0,0,0,.076-.127.5.5,0,0,0,0-.323.367.367,0,0,0-.076-.127.353.353,0,0,0-.119-.083.393.393,0,0,0-.158-.03" transform="translate(-56.47 -89.153)" fill="#1a1311"/>
        <path id="パス_183" data-name="パス 183" d="M97.036,141.858h.6a1.1,1.1,0,0,1,.319.042.844.844,0,0,1,.238.111.7.7,0,0,1,.168.159.85.85,0,0,1,.105.184.956.956,0,0,1,.056.19.994.994,0,0,1,.017.175.856.856,0,0,1-.061.319.8.8,0,0,1-.179.275.883.883,0,0,1-.3.193,1.055,1.055,0,0,1-.407.073h-.561Zm.233,1.5h.294a.976.976,0,0,0,.281-.04.688.688,0,0,0,.232-.121.574.574,0,0,0,.158-.2.642.642,0,0,0,.058-.281.833.833,0,0,0-.026-.193.585.585,0,0,0-.1-.21.6.6,0,0,0-.205-.169.727.727,0,0,0-.34-.069h-.35Z" transform="translate(-60.375 -88.263)" fill="#1a1311"/>
        <path id="パス_184" data-name="パス 184" d="M102.012,143.316h.218v.178h.005a.311.311,0,0,1,.058-.084.392.392,0,0,1,.081-.064.413.413,0,0,1,.1-.042.371.371,0,0,1,.107-.016.314.314,0,0,1,.1.014l-.01.236-.053-.012a.29.29,0,0,0-.054,0,.32.32,0,0,0-.245.09.394.394,0,0,0-.085.28v.578h-.218Z" transform="translate(-63.471 -89.153)" fill="#1a1311"/>
        <path id="パス_185" data-name="パス 185" d="M104.559,142.006a.16.16,0,1,1,.16.161.161.161,0,0,1-.16-.161m.051.413h.218v1.152h-.218Z" transform="translate(-65.056 -88.256)" fill="#1a1311"/>
        <path id="パス_186" data-name="パス 186" d="M106.082,143.364h.253l.345.882.331-.882h.233l-.452,1.152h-.241Z" transform="translate(-66.003 -89.2)" fill="#1a1311"/>
        <path id="パス_187" data-name="パス 187" d="M109.832,142.006a.161.161,0,1,1,.047.113.154.154,0,0,1-.047-.113m.051.413h.218v1.152h-.218Z" transform="translate(-68.337 -88.256)" fill="#1a1311"/>
        <path id="パス_188" data-name="パス 188" d="M111.721,143.316h.218v.178h.005a.321.321,0,0,1,.143-.15.475.475,0,0,1,.236-.057.5.5,0,0,1,.159.025.356.356,0,0,1,.133.079.379.379,0,0,1,.091.137.519.519,0,0,1,.034.2v.741h-.218v-.68a.37.37,0,0,0-.022-.137.242.242,0,0,0-.058-.092.207.207,0,0,0-.084-.051.3.3,0,0,0-.1-.016.354.354,0,0,0-.127.022.262.262,0,0,0-.1.069.328.328,0,0,0-.068.12.546.546,0,0,0-.025.173v.593h-.218Z" transform="translate(-69.512 -89.153)" fill="#1a1311"/>
        <path id="パス_189" data-name="パス 189" d="M116.615,144.458a.617.617,0,0,1-.045.239.544.544,0,0,1-.128.187.578.578,0,0,1-.2.123.73.73,0,0,1-.258.043.939.939,0,0,1-.3-.046.731.731,0,0,1-.261-.16l.148-.185a.611.611,0,0,0,.185.14.523.523,0,0,0,.226.047.5.5,0,0,0,.2-.035.346.346,0,0,0,.127-.091.324.324,0,0,0,.067-.128.555.555,0,0,0,.02-.145v-.17h-.008a.382.382,0,0,1-.171.154.536.536,0,0,1-.227.05.6.6,0,0,1-.234-.045.558.558,0,0,1-.186-.124.577.577,0,0,1-.121-.187.622.622,0,0,1-.044-.235.679.679,0,0,1,.041-.237.578.578,0,0,1,.118-.193.532.532,0,0,1,.184-.129.612.612,0,0,1,.242-.046.536.536,0,0,1,.227.051.416.416,0,0,1,.174.144h0v-.165h.218Zm-.6-.967a.392.392,0,0,0-.158.03.35.35,0,0,0-.119.083.366.366,0,0,0-.076.127.481.481,0,0,0-.027.161.388.388,0,0,0,.1.281.416.416,0,0,0,.553,0,.386.386,0,0,0,.1-.281.472.472,0,0,0-.027-.161.365.365,0,0,0-.076-.127.353.353,0,0,0-.119-.083.393.393,0,0,0-.158-.03" transform="translate(-71.804 -89.153)" fill="#1a1311"/>
        <path id="パス_190" data-name="パス 190" d="M121.932,141.859h.233v1.5h.79v.219h-1.023Z" transform="translate(-75.866 -88.264)" fill="#1a1311"/>
        <path id="パス_191" data-name="パス 191" d="M125.291,143.457a.612.612,0,0,1,.214-.128.729.729,0,0,1,.243-.042.661.661,0,0,1,.217.031.426.426,0,0,1,.15.085.341.341,0,0,1,.086.123.386.386,0,0,1,.028.144v.588c0,.04,0,.077,0,.112s0,.066.008.1h-.195c0-.058-.007-.117-.007-.175h0a.416.416,0,0,1-.172.158.547.547,0,0,1-.231.046.54.54,0,0,1-.153-.022.375.375,0,0,1-.127-.065.315.315,0,0,1-.087-.108.372.372,0,0,1,.018-.336.379.379,0,0,1,.136-.123.661.661,0,0,1,.2-.068,1.421,1.421,0,0,1,.247-.021h.16V143.7a.238.238,0,0,0-.017-.087.235.235,0,0,0-.051-.079.247.247,0,0,0-.085-.056.328.328,0,0,0-.122-.02.437.437,0,0,0-.11.012.469.469,0,0,0-.086.03.39.39,0,0,0-.071.042l-.061.046Zm.617.457a1.53,1.53,0,0,0-.159.008.619.619,0,0,0-.148.033.291.291,0,0,0-.11.068.154.154,0,0,0-.042.112.158.158,0,0,0,.067.143.327.327,0,0,0,.181.044.349.349,0,0,0,.153-.03.292.292,0,0,0,.1-.079.306.306,0,0,0,.056-.108.428.428,0,0,0,.017-.118v-.073Z" transform="translate(-77.917 -89.153)" fill="#1a1311"/>
        <path id="パス_192" data-name="パス 192" d="M128.973,141.551h.218v.85h.005a.392.392,0,0,1,.167-.142.536.536,0,0,1,.233-.052.613.613,0,0,1,.242.046.545.545,0,0,1,.185.128.567.567,0,0,1,.118.192.676.676,0,0,1,.041.239.668.668,0,0,1-.041.238.586.586,0,0,1-.118.192.537.537,0,0,1-.185.129.611.611,0,0,1-.242.046.536.536,0,0,1-.227-.051.415.415,0,0,1-.173-.144h-.005v.165h-.218Zm.6,1.662a.394.394,0,0,0,.158-.03.353.353,0,0,0,.119-.083.367.367,0,0,0,.076-.127.5.5,0,0,0,0-.323.367.367,0,0,0-.076-.127.353.353,0,0,0-.119-.083.427.427,0,0,0-.316,0,.351.351,0,0,0-.119.083.365.365,0,0,0-.076.127.5.5,0,0,0,0,.323.365.365,0,0,0,.076.127.35.35,0,0,0,.119.083.393.393,0,0,0,.158.03" transform="translate(-80.246 -88.072)" fill="#1a1311"/>
        <path id="パス_193" data-name="パス 193" d="M13.488,26.976h4.858L27.322,18H13.488a4.512,4.512,0,0,1,0-9.024H36.346L45.322,0H13.488a13.488,13.488,0,0,0,0,26.976" fill="#727272"/>
        <path id="パス_194" data-name="パス 194" d="M69.428,23.758H64.57l-8.976,8.976H69.428a4.512,4.512,0,1,1,0,9.024H46.57l-8.976,8.976H69.428a13.488,13.488,0,1,0,0-26.976" transform="translate(-23.391 -14.782)" fill="#1a1311"/>
      </g>
    </g>
    <g id="box-9" data-name="box" transform="translate(-65 438)">
      <g id="box-10" data-name="box" transform="translate(302 2054)" fill="rgba(0,0,0,0.8)" stroke="#fff" stroke-width="1">
        <rect width="120" height="120" rx="60" stroke="none"/>
        <rect x="0.5" y="0.5" width="119" height="119" rx="59.5" fill="none"/>
      </g>
      <text id="f1" transform="translate(325.5 2103.319)" fill="#fff" font-size="20" font-family="Helvetica" letter-spacing="0.025em"><tspan x="0" y="0">f1</tspan></text>
      <text id="チームや" transform="translate(371.5 2103.2)" fill="#fff" font-size="13" font-family="SourceHanSerif-Medium, Source Han Serif" font-weight="500" letter-spacing="0.025em"><tspan x="-26.487" y="0">チームや</tspan></text>
      <text id="自動車メーカーの_シミュレーター" data-name="自動車メーカーの
シミュレーター" transform="translate(362 2121.681)" fill="#fff" font-size="13" font-family="SourceHanSerif-Medium, Source Han Serif" font-weight="500" letter-spacing="0.025em"><tspan x="-53.007" y="0">自動車</tspan><tspan y="0">メーカーの</tspan><tspan x="-46.345" y="16">シミュレーター</tspan></text>
    </g>
  </g>
</svg>
